<svg width="1512" height="753" viewBox="0 0 1512 753" fill="none" xmlns="http://www.w3.org/2000/svg">
<g clip-path="url(#clip0_3333_222898)">
<rect width="1512" height="752" transform="translate(0 0.92041)" fill="white"/>
<g opacity="0.1" filter="url(#filter0_f_3333_222898)">
<circle cx="1018.5" cy="401.42" r="267.5" fill="#07A658"/>
</g>
<path opacity="0.2" d="M42 686.92C313.933 686.92 396.223 685.672 584.85 685.672C820.634 685.672 823.984 542.704 851.463 486.797C878.941 430.891 956.03 332.357 1064.9 332.357C1173.77 332.357 1291.06 291.528 1323.38 206.575C1355.71 121.621 1443.41 116.509 1512 116.509" stroke="#07A658" stroke-width="4"/>
<path d="M0 683.921C235.523 683.921 789.673 683.921 953.044 683.921C1157.26 683.921 1161.39 547.834 1227.73 466.049C1294.06 384.265 1388.32 365.549 1521.45 365.549" stroke="#07A658" stroke-width="4"/>
<rect x="874" y="548.92" width="162" height="60" rx="30" fill="#FCD7D2"/>
<path d="M903.582 580.991V584.061H901.789V586.92H898.449V584.061H890.504V580.991L896.094 570.116H899.645L894.078 580.991H898.449V577.006H901.789V580.991H903.582ZM905.48 581.155V578.19H914.48V581.155H905.48ZM922.754 576.245C923.527 576.245 924.258 576.366 924.945 576.608C925.633 576.842 926.242 577.186 926.773 577.639C927.305 578.084 927.723 578.663 928.027 579.374C928.34 580.077 928.496 580.866 928.496 581.741C928.496 582.897 928.211 583.901 927.641 584.752C927.078 585.604 926.348 586.237 925.449 586.651C924.559 587.057 923.574 587.26 922.496 587.26C921.137 587.26 919.938 586.956 918.898 586.346C917.859 585.737 917.105 584.838 916.637 583.651L919.473 581.999C919.895 583.342 920.902 584.014 922.496 584.014C923.348 584.014 924.008 583.811 924.477 583.405C924.945 582.991 925.18 582.436 925.18 581.741C925.18 581.053 924.949 580.502 924.488 580.088C924.027 579.667 923.395 579.456 922.59 579.456H917.504L918.172 570.116H927.699V573.221H921.242L921.031 576.245H922.754ZM936.711 576.561C935.945 577.327 934.984 577.709 933.828 577.709C932.672 577.709 931.707 577.327 930.934 576.561C930.16 575.795 929.773 574.858 929.773 573.749C929.773 572.647 930.16 571.713 930.934 570.948C931.707 570.174 932.672 569.788 933.828 569.788C934.977 569.788 935.934 570.17 936.699 570.936C937.473 571.694 937.859 572.631 937.859 573.749C937.859 574.858 937.477 575.795 936.711 576.561ZM931.484 584.377L942.418 572.213L943.883 573.022L932.914 585.221L931.484 584.377ZM933.805 575.284C934.242 575.284 934.602 575.135 934.883 574.838C935.172 574.542 935.316 574.178 935.316 573.749C935.316 573.319 935.172 572.959 934.883 572.67C934.602 572.381 934.242 572.237 933.805 572.237C933.375 572.237 933.02 572.381 932.738 572.67C932.457 572.959 932.316 573.319 932.316 573.749C932.316 574.186 932.457 574.553 932.738 574.85C933.02 575.139 933.375 575.284 933.805 575.284ZM944.82 586.065C944.055 586.831 943.094 587.213 941.938 587.213C940.781 587.213 939.82 586.831 939.055 586.065C938.289 585.292 937.906 584.354 937.906 583.252C937.906 582.151 938.289 581.217 939.055 580.452C939.82 579.678 940.781 579.292 941.938 579.292C943.094 579.292 944.055 579.678 944.82 580.452C945.594 581.217 945.98 582.151 945.98 583.252C945.98 584.354 945.594 585.292 944.82 586.065ZM940.871 584.354C941.145 584.643 941.5 584.788 941.938 584.788C942.375 584.788 942.73 584.639 943.004 584.342C943.285 584.038 943.426 583.674 943.426 583.252C943.426 582.815 943.285 582.452 943.004 582.163C942.73 581.866 942.375 581.717 941.938 581.717C941.5 581.717 941.145 581.866 940.871 582.163C940.598 582.452 940.461 582.815 940.461 583.252C940.461 583.69 940.598 584.057 940.871 584.354Z" fill="#142528"/>
<path d="M968.812 584.131C967.766 584.131 966.872 583.887 966.133 583.397C965.398 582.902 964.88 582.228 964.578 581.374L965.859 580.639C966.068 581.28 966.419 581.78 966.914 582.139C967.414 582.493 968.06 582.67 968.852 582.67C969.622 582.67 970.208 582.514 970.609 582.202C971.016 581.884 971.219 581.465 971.219 580.944C971.219 580.72 971.177 580.519 971.094 580.342C971.01 580.16 970.904 580.006 970.773 579.881C970.643 579.751 970.453 579.626 970.203 579.506C969.958 579.387 969.721 579.285 969.492 579.202C969.268 579.118 968.964 579.017 968.578 578.897C968.104 578.746 967.745 578.626 967.5 578.538C967.26 578.449 966.956 578.311 966.586 578.124C966.216 577.931 965.94 577.736 965.758 577.538C965.576 577.34 965.411 577.082 965.266 576.764C965.125 576.441 965.055 576.079 965.055 575.678C965.055 575.027 965.219 574.459 965.547 573.975C965.875 573.486 966.302 573.121 966.828 572.881C967.359 572.637 967.943 572.514 968.578 572.514C969.464 572.514 970.234 572.738 970.891 573.186C971.547 573.634 972.039 574.225 972.367 574.959L971.117 575.678C970.638 574.527 969.792 573.952 968.578 573.952C967.969 573.952 967.477 574.103 967.102 574.405C966.732 574.707 966.547 575.111 966.547 575.616C966.547 575.871 966.591 576.092 966.68 576.28C966.773 576.467 966.927 576.637 967.141 576.788C967.359 576.933 967.599 577.061 967.859 577.17C968.12 577.28 968.466 577.402 968.898 577.538C969.914 577.871 970.622 578.144 971.023 578.358C971.862 578.795 972.38 579.368 972.578 580.077C972.651 580.332 972.688 580.611 972.688 580.913C972.688 581.887 972.331 582.668 971.617 583.256C970.904 583.84 969.969 584.131 968.812 584.131ZM978.406 577.264H976.281V581.6C976.281 581.991 976.359 582.269 976.516 582.436C976.672 582.597 976.906 582.683 977.219 582.694C977.536 582.699 977.932 582.691 978.406 582.67V583.92C977.193 584.082 976.302 583.983 975.734 583.624C975.172 583.264 974.891 582.59 974.891 581.6V577.264H973.305V575.92H974.891V574.1L976.281 573.678V575.92H978.406V577.264ZM986.273 575.92H987.664V583.92H986.273V582.545C985.945 583.045 985.523 583.436 985.008 583.717C984.497 583.993 983.911 584.131 983.25 584.131C982.516 584.131 981.839 583.946 981.219 583.577C980.599 583.207 980.107 582.699 979.742 582.053C979.383 581.407 979.203 580.696 979.203 579.92C979.203 579.144 979.383 578.433 979.742 577.788C980.107 577.142 980.599 576.634 981.219 576.264C981.839 575.894 982.516 575.709 983.25 575.709C983.911 575.709 984.497 575.85 985.008 576.131C985.523 576.407 985.945 576.795 986.273 577.295V575.92ZM983.422 582.788C984.229 582.788 984.906 582.514 985.453 581.967C986 581.42 986.273 580.738 986.273 579.92C986.273 579.103 986 578.42 985.453 577.874C984.906 577.327 984.229 577.053 983.422 577.053C982.62 577.053 981.948 577.327 981.406 577.874C980.865 578.42 980.594 579.103 980.594 579.92C980.594 580.738 980.865 581.42 981.406 581.967C981.948 582.514 982.62 582.788 983.422 582.788ZM996.539 583.92H994.812L991.164 580.131V583.92H989.773V572.717H991.164V579.459L994.625 575.92H996.414L992.594 579.795L996.539 583.92ZM998.539 574.467C998.273 574.467 998.049 574.379 997.867 574.202C997.685 574.019 997.594 573.798 997.594 573.538C997.594 573.277 997.685 573.056 997.867 572.874C998.049 572.686 998.273 572.592 998.539 572.592C998.794 572.592 999.013 572.686 999.195 572.874C999.378 573.056 999.469 573.277 999.469 573.538C999.469 573.793 999.378 574.012 999.195 574.194C999.013 574.376 998.794 574.467 998.539 574.467ZM997.836 583.92V575.92H999.227V583.92H997.836ZM1005.34 575.709C1006.28 575.709 1007.03 576.006 1007.59 576.6C1008.16 577.189 1008.44 577.991 1008.44 579.006V583.92H1007.05V579.092C1007.05 578.441 1006.87 577.936 1006.52 577.577C1006.17 577.217 1005.68 577.038 1005.06 577.038C1004.38 577.038 1003.82 577.254 1003.38 577.686C1002.96 578.118 1002.74 578.782 1002.74 579.678V583.92H1001.35V575.92H1002.74V577.069C1003.31 576.163 1004.17 575.709 1005.34 575.709ZM1017.02 575.92H1018.4V583.584C1018.4 584.189 1018.28 584.733 1018.05 585.217C1017.83 585.702 1017.52 586.095 1017.13 586.397C1016.75 586.699 1016.32 586.928 1015.84 587.084C1015.36 587.246 1014.85 587.327 1014.32 587.327C1013.42 587.327 1012.65 587.157 1012 586.819C1011.35 586.486 1010.86 586.004 1010.53 585.374L1011.74 584.686C1011.88 584.957 1012.04 585.186 1012.23 585.374C1012.43 585.561 1012.7 585.717 1013.06 585.842C1013.42 585.967 1013.85 586.03 1014.35 586.03C1015.18 586.03 1015.83 585.811 1016.3 585.374C1016.78 584.936 1017.02 584.34 1017.02 583.584V582.452C1016.7 582.957 1016.28 583.35 1015.77 583.631C1015.26 583.907 1014.67 584.045 1014.02 584.045C1012.88 584.045 1011.92 583.642 1011.12 582.834C1010.33 582.027 1009.94 581.04 1009.94 579.874C1009.94 579.113 1010.12 578.415 1010.48 577.78C1010.84 577.139 1011.34 576.634 1011.96 576.264C1012.59 575.894 1013.27 575.709 1014.02 575.709C1014.67 575.709 1015.26 575.85 1015.77 576.131C1016.28 576.407 1016.7 576.795 1017.02 577.295V575.92ZM1012.15 581.905C1012.7 582.446 1013.37 582.717 1014.18 582.717C1014.99 582.717 1015.66 582.446 1016.2 581.905C1016.75 581.358 1017.02 580.681 1017.02 579.874C1017.02 579.071 1016.75 578.4 1016.2 577.858C1015.66 577.311 1014.99 577.038 1014.18 577.038C1013.37 577.038 1012.7 577.311 1012.15 577.858C1011.6 578.4 1011.33 579.071 1011.33 579.874C1011.33 580.681 1011.6 581.358 1012.15 581.905Z" fill="#142528"/>
<path d="M955 675.587C952.054 675.587 949.667 677.975 949.667 680.92C949.667 683.866 952.054 686.254 955 686.254C957.946 686.254 960.333 683.866 960.333 680.92C960.333 677.975 957.946 675.587 955 675.587ZM954 608.92L954 680.92L956 680.92L956 608.92L954 608.92Z" fill="#8A92A6"/>
<rect x="986" y="227.92" width="252" height="80" rx="40" fill="#FCD7D2"/>
<path d="M1006.68 259.116H1009.56V275.92H1006.24V262.62L1003.08 263.51L1002.27 260.686L1006.68 259.116ZM1011.93 275.92V273.448L1017.67 267.542C1018.29 266.901 1018.76 266.315 1019.09 265.784C1019.42 265.245 1019.59 264.713 1019.59 264.19C1019.59 263.526 1019.39 262.995 1018.98 262.596C1018.57 262.198 1018.05 261.999 1017.4 261.999C1016.77 261.999 1016.21 262.174 1015.73 262.526C1015.26 262.87 1014.88 263.35 1014.6 263.967L1011.81 262.338C1012.33 261.174 1013.09 260.292 1014.08 259.69C1015.07 259.088 1016.16 258.788 1017.35 258.788C1018.33 258.788 1019.23 258.991 1020.06 259.397C1020.89 259.795 1021.57 260.405 1022.1 261.225C1022.63 262.038 1022.89 262.983 1022.89 264.061C1022.89 265.811 1021.98 267.604 1020.14 269.44L1016.85 272.733H1023.16V275.92H1011.93ZM1031.81 265.561C1031.05 266.327 1030.09 266.709 1028.93 266.709C1027.77 266.709 1026.81 266.327 1026.04 265.561C1025.26 264.795 1024.88 263.858 1024.88 262.749C1024.88 261.647 1025.26 260.713 1026.04 259.948C1026.81 259.174 1027.77 258.788 1028.93 258.788C1030.08 258.788 1031.04 259.17 1031.8 259.936C1032.57 260.694 1032.96 261.631 1032.96 262.749C1032.96 263.858 1032.58 264.795 1031.81 265.561ZM1026.59 273.377L1037.52 261.213L1038.98 262.022L1028.02 274.221L1026.59 273.377ZM1028.91 264.284C1029.34 264.284 1029.7 264.135 1029.98 263.838C1030.27 263.542 1030.42 263.178 1030.42 262.749C1030.42 262.319 1030.27 261.959 1029.98 261.67C1029.7 261.381 1029.34 261.237 1028.91 261.237C1028.48 261.237 1028.12 261.381 1027.84 261.67C1027.56 261.959 1027.42 262.319 1027.42 262.749C1027.42 263.186 1027.56 263.553 1027.84 263.85C1028.12 264.139 1028.48 264.284 1028.91 264.284ZM1039.92 275.065C1039.16 275.831 1038.2 276.213 1037.04 276.213C1035.88 276.213 1034.92 275.831 1034.16 275.065C1033.39 274.292 1033.01 273.354 1033.01 272.252C1033.01 271.151 1033.39 270.217 1034.16 269.452C1034.92 268.678 1035.88 268.292 1037.04 268.292C1038.2 268.292 1039.16 268.678 1039.92 269.452C1040.7 270.217 1041.08 271.151 1041.08 272.252C1041.08 273.354 1040.7 274.292 1039.92 275.065ZM1035.97 273.354C1036.25 273.643 1036.6 273.788 1037.04 273.788C1037.48 273.788 1037.83 273.639 1038.11 273.342C1038.39 273.038 1038.53 272.674 1038.53 272.252C1038.53 271.815 1038.39 271.452 1038.11 271.163C1037.83 270.866 1037.48 270.717 1037.04 270.717C1036.6 270.717 1036.25 270.866 1035.97 271.163C1035.7 271.452 1035.56 271.815 1035.56 272.252C1035.56 272.69 1035.7 273.057 1035.97 273.354ZM1043.71 270.155V267.19H1052.71V270.155H1043.71ZM1054.91 275.92V273.448L1060.65 267.542C1061.27 266.901 1061.74 266.315 1062.07 265.784C1062.41 265.245 1062.57 264.713 1062.57 264.19C1062.57 263.526 1062.37 262.995 1061.96 262.596C1061.56 262.198 1061.03 261.999 1060.38 261.999C1059.75 261.999 1059.2 262.174 1058.72 262.526C1058.24 262.87 1057.86 263.35 1057.58 263.967L1054.79 262.338C1055.32 261.174 1056.07 260.292 1057.07 259.69C1058.06 259.088 1059.15 258.788 1060.34 258.788C1061.31 258.788 1062.21 258.991 1063.04 259.397C1063.88 259.795 1064.56 260.405 1065.08 261.225C1065.61 262.038 1065.88 262.983 1065.88 264.061C1065.88 265.811 1064.96 267.604 1063.12 269.44L1059.83 272.733H1066.15V275.92H1054.91ZM1074.34 276.26C1072.94 276.26 1071.73 275.893 1070.71 275.159C1069.69 274.417 1068.92 273.393 1068.4 272.088C1067.88 270.776 1067.62 269.252 1067.62 267.518C1067.62 264.885 1068.22 262.772 1069.41 261.178C1070.59 259.584 1072.24 258.788 1074.34 258.788C1075.75 258.788 1076.96 259.159 1077.98 259.901C1079.01 260.635 1079.78 261.655 1080.29 262.959C1080.81 264.264 1081.07 265.784 1081.07 267.518C1081.07 270.159 1080.47 272.276 1079.29 273.87C1078.1 275.463 1076.45 276.26 1074.34 276.26ZM1071.79 271.608C1072.36 272.545 1073.21 273.014 1074.34 273.014C1075.46 273.014 1076.32 272.545 1076.89 271.608C1077.48 270.663 1077.77 269.299 1077.77 267.518C1077.77 265.729 1077.48 264.362 1076.89 263.417C1076.32 262.471 1075.46 261.999 1074.34 261.999C1073.21 261.999 1072.36 262.471 1071.79 263.417C1071.21 264.362 1070.93 265.729 1070.93 267.518C1070.93 269.307 1071.21 270.67 1071.79 271.608ZM1089.42 265.561C1088.66 266.327 1087.7 266.709 1086.54 266.709C1085.38 266.709 1084.42 266.327 1083.64 265.561C1082.87 264.795 1082.48 263.858 1082.48 262.749C1082.48 261.647 1082.87 260.713 1083.64 259.948C1084.42 259.174 1085.38 258.788 1086.54 258.788C1087.69 258.788 1088.64 259.17 1089.41 259.936C1090.18 260.694 1090.57 261.631 1090.57 262.749C1090.57 263.858 1090.19 264.795 1089.42 265.561ZM1084.2 273.377L1095.13 261.213L1096.59 262.022L1085.62 274.221L1084.2 273.377ZM1086.52 264.284C1086.95 264.284 1087.31 264.135 1087.59 263.838C1087.88 263.542 1088.03 263.178 1088.03 262.749C1088.03 262.319 1087.88 261.959 1087.59 261.67C1087.31 261.381 1086.95 261.237 1086.52 261.237C1086.09 261.237 1085.73 261.381 1085.45 261.67C1085.17 261.959 1085.03 262.319 1085.03 262.749C1085.03 263.186 1085.17 263.553 1085.45 263.85C1085.73 264.139 1086.09 264.284 1086.52 264.284ZM1097.53 275.065C1096.77 275.831 1095.8 276.213 1094.65 276.213C1093.49 276.213 1092.53 275.831 1091.77 275.065C1091 274.292 1090.62 273.354 1090.62 272.252C1090.62 271.151 1091 270.217 1091.77 269.452C1092.53 268.678 1093.49 268.292 1094.65 268.292C1095.8 268.292 1096.77 268.678 1097.53 269.452C1098.3 270.217 1098.69 271.151 1098.69 272.252C1098.69 273.354 1098.3 274.292 1097.53 275.065ZM1093.58 273.354C1093.86 273.643 1094.21 273.788 1094.65 273.788C1095.09 273.788 1095.44 273.639 1095.71 273.342C1096 273.038 1096.14 272.674 1096.14 272.252C1096.14 271.815 1096 271.452 1095.71 271.163C1095.44 270.866 1095.09 270.717 1094.65 270.717C1094.21 270.717 1093.86 270.866 1093.58 271.163C1093.31 271.452 1093.17 271.815 1093.17 272.252C1093.17 272.69 1093.31 273.057 1093.58 273.354Z" fill="#142528"/>
<path d="M1118.69 259.514H1123.52V260.92H1117.2V249.717H1118.69V259.514ZM1125.57 251.467C1125.3 251.467 1125.08 251.379 1124.9 251.202C1124.72 251.019 1124.62 250.798 1124.62 250.538C1124.62 250.277 1124.72 250.056 1124.9 249.874C1125.08 249.686 1125.3 249.592 1125.57 249.592C1125.83 249.592 1126.04 249.686 1126.23 249.874C1126.41 250.056 1126.5 250.277 1126.5 250.538C1126.5 250.793 1126.41 251.012 1126.23 251.194C1126.04 251.376 1125.83 251.467 1125.57 251.467ZM1124.87 260.92V252.92H1126.26V260.92H1124.87ZM1135.01 252.92H1136.4V264.124H1135.01V259.545C1134.68 260.045 1134.26 260.436 1133.74 260.717C1133.23 260.993 1132.65 261.131 1131.98 261.131C1131.25 261.131 1130.57 260.946 1129.95 260.577C1129.33 260.207 1128.84 259.699 1128.48 259.053C1128.12 258.407 1127.94 257.696 1127.94 256.92C1127.94 256.144 1128.12 255.433 1128.48 254.788C1128.84 254.142 1129.33 253.634 1129.95 253.264C1130.57 252.894 1131.25 252.709 1131.98 252.709C1132.65 252.709 1133.23 252.85 1133.74 253.131C1134.26 253.407 1134.68 253.795 1135.01 254.295V252.92ZM1132.16 259.788C1132.96 259.788 1133.64 259.514 1134.19 258.967C1134.73 258.42 1135.01 257.738 1135.01 256.92C1135.01 256.103 1134.73 255.42 1134.19 254.874C1133.64 254.327 1132.96 254.053 1132.16 254.053C1131.35 254.053 1130.68 254.327 1130.14 254.874C1129.6 255.42 1129.33 256.103 1129.33 256.92C1129.33 257.738 1129.6 258.42 1130.14 258.967C1130.68 259.514 1131.35 259.788 1132.16 259.788ZM1144.03 252.92H1145.42V260.92H1144.03V259.772C1143.46 260.678 1142.6 261.131 1141.44 261.131C1140.49 261.131 1139.74 260.837 1139.18 260.249C1138.62 259.655 1138.34 258.85 1138.34 257.834V252.92H1139.73V257.749C1139.73 258.4 1139.9 258.905 1140.25 259.264C1140.6 259.624 1141.09 259.803 1141.71 259.803C1142.4 259.803 1142.96 259.587 1143.38 259.155C1143.82 258.722 1144.03 258.058 1144.03 257.163V252.92ZM1148.24 251.467C1147.98 251.467 1147.75 251.379 1147.57 251.202C1147.39 251.019 1147.3 250.798 1147.3 250.538C1147.3 250.277 1147.39 250.056 1147.57 249.874C1147.75 249.686 1147.98 249.592 1148.24 249.592C1148.5 249.592 1148.72 249.686 1148.9 249.874C1149.08 250.056 1149.17 250.277 1149.17 250.538C1149.17 250.793 1149.08 251.012 1148.9 251.194C1148.72 251.376 1148.5 251.467 1148.24 251.467ZM1147.54 260.92V252.92H1148.93V260.92H1147.54ZM1157.68 249.717H1159.07V260.92H1157.68V259.545C1157.35 260.045 1156.93 260.436 1156.41 260.717C1155.9 260.993 1155.32 261.131 1154.66 261.131C1153.92 261.131 1153.24 260.946 1152.62 260.577C1152.01 260.207 1151.51 259.699 1151.15 259.053C1150.79 258.407 1150.61 257.696 1150.61 256.92C1150.61 256.144 1150.79 255.433 1151.15 254.788C1151.51 254.142 1152.01 253.634 1152.62 253.264C1153.24 252.894 1153.92 252.709 1154.66 252.709C1155.32 252.709 1155.9 252.85 1156.41 253.131C1156.93 253.407 1157.35 253.795 1157.68 254.295V249.717ZM1154.83 259.788C1155.64 259.788 1156.31 259.514 1156.86 258.967C1157.41 258.42 1157.68 257.738 1157.68 256.92C1157.68 256.103 1157.41 255.42 1156.86 254.874C1156.31 254.327 1155.64 254.053 1154.83 254.053C1154.03 254.053 1153.35 254.327 1152.81 254.874C1152.27 255.42 1152 256.103 1152 256.92C1152 257.738 1152.27 258.42 1152.81 258.967C1153.35 259.514 1154.03 259.788 1154.83 259.788ZM1166.38 255.077C1166.38 255.28 1166.45 255.457 1166.57 255.608C1166.7 255.754 1166.87 255.868 1167.08 255.952C1167.29 256.035 1167.53 256.121 1167.8 256.209C1168.07 256.293 1168.34 256.368 1168.62 256.436C1168.9 256.504 1169.17 256.6 1169.44 256.725C1169.71 256.85 1169.95 256.993 1170.16 257.155C1170.37 257.311 1170.54 257.525 1170.66 257.795C1170.79 258.066 1170.86 258.376 1170.86 258.725C1170.86 259.454 1170.58 260.038 1170.02 260.475C1169.45 260.913 1168.74 261.131 1167.87 261.131C1167.09 261.131 1166.43 260.962 1165.88 260.624C1165.32 260.28 1164.93 259.824 1164.69 259.256L1165.88 258.569C1166.01 258.954 1166.25 259.259 1166.6 259.483C1166.96 259.707 1167.38 259.819 1167.87 259.819C1168.33 259.819 1168.71 259.73 1169.01 259.553C1169.3 259.371 1169.45 259.095 1169.45 258.725C1169.45 258.522 1169.39 258.347 1169.26 258.202C1169.13 258.051 1168.96 257.933 1168.75 257.85C1168.54 257.762 1168.3 257.676 1168.03 257.592C1167.77 257.504 1167.49 257.426 1167.21 257.358C1166.93 257.29 1166.66 257.194 1166.39 257.069C1166.12 256.944 1165.89 256.803 1165.67 256.647C1165.46 256.491 1165.29 256.28 1165.16 256.014C1165.04 255.749 1164.98 255.444 1164.98 255.1C1164.98 254.402 1165.24 253.829 1165.78 253.381C1166.32 252.933 1166.99 252.709 1167.8 252.709C1168.46 252.709 1169.03 252.858 1169.54 253.155C1170.04 253.446 1170.43 253.853 1170.69 254.374L1169.52 255.03C1169.37 254.686 1169.14 254.431 1168.83 254.264C1168.52 254.092 1168.18 254.006 1167.8 254.006C1167.41 254.006 1167.08 254.1 1166.8 254.288C1166.52 254.475 1166.38 254.738 1166.38 255.077ZM1176.53 254.264H1174.41V258.6C1174.41 258.991 1174.48 259.269 1174.64 259.436C1174.8 259.597 1175.03 259.683 1175.34 259.694C1175.66 259.699 1176.06 259.691 1176.53 259.67V260.92C1175.32 261.082 1174.43 260.983 1173.86 260.624C1173.3 260.264 1173.02 259.59 1173.02 258.6V254.264H1171.43V252.92H1173.02V251.1L1174.41 250.678V252.92H1176.53V254.264ZM1184.4 252.92H1185.79V260.92H1184.4V259.545C1184.07 260.045 1183.65 260.436 1183.13 260.717C1182.62 260.993 1182.04 261.131 1181.38 261.131C1180.64 261.131 1179.96 260.946 1179.34 260.577C1178.72 260.207 1178.23 259.699 1177.87 259.053C1177.51 258.407 1177.33 257.696 1177.33 256.92C1177.33 256.144 1177.51 255.433 1177.87 254.788C1178.23 254.142 1178.72 253.634 1179.34 253.264C1179.96 252.894 1180.64 252.709 1181.38 252.709C1182.04 252.709 1182.62 252.85 1183.13 253.131C1183.65 253.407 1184.07 253.795 1184.4 254.295V252.92ZM1181.55 259.788C1182.35 259.788 1183.03 259.514 1183.58 258.967C1184.12 258.42 1184.4 257.738 1184.4 256.92C1184.4 256.103 1184.12 255.42 1183.58 254.874C1183.03 254.327 1182.35 254.053 1181.55 254.053C1180.74 254.053 1180.07 254.327 1179.53 254.874C1178.99 255.42 1178.72 256.103 1178.72 256.92C1178.72 257.738 1178.99 258.42 1179.53 258.967C1180.07 259.514 1180.74 259.788 1181.55 259.788ZM1194.66 260.92H1192.94L1189.29 257.131V260.92H1187.9V249.717H1189.29V256.459L1192.75 252.92H1194.54L1190.72 256.795L1194.66 260.92ZM1196.66 251.467C1196.4 251.467 1196.17 251.379 1195.99 251.202C1195.81 251.019 1195.72 250.798 1195.72 250.538C1195.72 250.277 1195.81 250.056 1195.99 249.874C1196.17 249.686 1196.4 249.592 1196.66 249.592C1196.92 249.592 1197.14 249.686 1197.32 249.874C1197.5 250.056 1197.59 250.277 1197.59 250.538C1197.59 250.793 1197.5 251.012 1197.32 251.194C1197.14 251.376 1196.92 251.467 1196.66 251.467ZM1195.96 260.92V252.92H1197.35V260.92H1195.96ZM1203.46 252.709C1204.4 252.709 1205.16 253.006 1205.72 253.6C1206.28 254.189 1206.56 254.991 1206.56 256.006V260.92H1205.17V256.092C1205.17 255.441 1204.99 254.936 1204.64 254.577C1204.29 254.217 1203.81 254.038 1203.19 254.038C1202.5 254.038 1201.94 254.254 1201.51 254.686C1201.08 255.118 1200.87 255.782 1200.87 256.678V260.92H1199.48V252.92H1200.87V254.069C1201.43 253.163 1202.3 252.709 1203.46 252.709ZM1215.15 252.92H1216.52V260.584C1216.52 261.189 1216.41 261.733 1216.18 262.217C1215.95 262.702 1215.64 263.095 1215.26 263.397C1214.88 263.699 1214.45 263.928 1213.96 264.084C1213.48 264.246 1212.98 264.327 1212.45 264.327C1211.55 264.327 1210.78 264.157 1210.12 263.819C1209.47 263.486 1208.98 263.004 1208.66 262.374L1209.87 261.686C1210 261.957 1210.17 262.186 1210.36 262.374C1210.55 262.561 1210.83 262.717 1211.19 262.842C1211.55 262.967 1211.98 263.03 1212.48 263.03C1213.3 263.03 1213.96 262.811 1214.43 262.374C1214.91 261.936 1215.15 261.34 1215.15 260.584V259.452C1214.82 259.957 1214.4 260.35 1213.89 260.631C1213.38 260.907 1212.8 261.045 1212.14 261.045C1211.01 261.045 1210.04 260.642 1209.25 259.834C1208.46 259.027 1208.06 258.04 1208.06 256.874C1208.06 256.113 1208.24 255.415 1208.6 254.78C1208.97 254.139 1209.46 253.634 1210.09 253.264C1210.71 252.894 1211.4 252.709 1212.14 252.709C1212.8 252.709 1213.38 252.85 1213.89 253.131C1214.4 253.407 1214.82 253.795 1215.15 254.295V252.92ZM1210.27 258.905C1210.82 259.446 1211.5 259.717 1212.3 259.717C1213.11 259.717 1213.79 259.446 1214.33 258.905C1214.88 258.358 1215.15 257.681 1215.15 256.874C1215.15 256.071 1214.88 255.4 1214.33 254.858C1213.79 254.311 1213.11 254.038 1212.3 254.038C1211.5 254.038 1210.82 254.311 1210.27 254.858C1209.73 255.4 1209.45 256.071 1209.45 256.874C1209.45 257.681 1209.73 258.358 1210.27 258.905ZM1126.48 276.92H1127.94L1125.45 284.92H1124.03L1122.16 278.999L1120.29 284.92H1118.87L1116.38 276.92H1117.84L1119.6 282.999L1121.48 276.92H1122.83L1124.72 283.014L1126.48 276.92ZM1130.07 275.467C1129.8 275.467 1129.58 275.379 1129.4 275.202C1129.22 275.019 1129.12 274.798 1129.12 274.538C1129.12 274.277 1129.22 274.056 1129.4 273.874C1129.58 273.686 1129.8 273.592 1130.07 273.592C1130.33 273.592 1130.54 273.686 1130.73 273.874C1130.91 274.056 1131 274.277 1131 274.538C1131 274.793 1130.91 275.012 1130.73 275.194C1130.54 275.376 1130.33 275.467 1130.07 275.467ZM1129.37 284.92V276.92H1130.76V284.92H1129.37ZM1137.23 278.264H1135.11V282.6C1135.11 282.991 1135.19 283.269 1135.34 283.436C1135.5 283.597 1135.73 283.683 1136.05 283.694C1136.36 283.699 1136.76 283.691 1137.23 283.67V284.92C1136.02 285.082 1135.13 284.983 1134.56 284.624C1134 284.264 1133.72 283.59 1133.72 282.6V278.264H1132.13V276.92H1133.72V275.1L1135.11 274.678V276.92H1137.23V278.264ZM1142.87 276.709C1143.81 276.709 1144.56 277.006 1145.12 277.6C1145.69 278.189 1145.97 278.991 1145.97 280.006V284.92H1144.58V280.092C1144.58 279.441 1144.4 278.936 1144.05 278.577C1143.7 278.217 1143.21 278.038 1142.59 278.038C1141.91 278.038 1141.35 278.254 1140.91 278.686C1140.49 279.118 1140.27 279.782 1140.27 280.678V284.92H1138.88V273.717H1140.27V278.069C1140.84 277.163 1141.71 276.709 1142.87 276.709ZM1156.43 273.717C1157.18 273.717 1157.89 273.866 1158.55 274.163C1159.22 274.454 1159.79 274.853 1160.25 275.358C1160.71 275.858 1161.08 276.452 1161.34 277.139C1161.61 277.827 1161.74 278.553 1161.74 279.319C1161.74 280.084 1161.61 280.811 1161.34 281.499C1161.08 282.186 1160.71 282.782 1160.25 283.288C1159.79 283.788 1159.22 284.186 1158.55 284.483C1157.89 284.775 1157.18 284.92 1156.43 284.92H1152.06V273.717H1156.43ZM1156.43 283.514C1157.18 283.514 1157.86 283.329 1158.45 282.959C1159.05 282.59 1159.51 282.087 1159.83 281.452C1160.15 280.816 1160.31 280.105 1160.31 279.319C1160.31 278.532 1160.15 277.821 1159.83 277.186C1159.51 276.551 1159.05 276.051 1158.45 275.686C1157.86 275.316 1157.18 275.131 1156.43 275.131H1153.55V283.514H1156.43ZM1164.38 281.561C1164.51 282.269 1164.84 282.824 1165.36 283.225C1165.88 283.621 1166.52 283.819 1167.27 283.819C1167.8 283.819 1168.26 283.712 1168.66 283.499C1169.06 283.28 1169.36 282.996 1169.58 282.647L1170.76 283.319C1170.39 283.881 1169.91 284.324 1169.3 284.647C1168.71 284.97 1168.02 285.131 1167.24 285.131C1165.97 285.131 1164.94 284.733 1164.14 283.936C1163.35 283.139 1162.95 282.134 1162.95 280.92C1162.95 279.722 1163.34 278.722 1164.12 277.92C1164.91 277.113 1165.91 276.709 1167.14 276.709C1167.92 276.709 1168.62 276.907 1169.23 277.303C1169.85 277.694 1170.32 278.209 1170.64 278.85C1170.96 279.491 1171.12 280.186 1171.12 280.936C1171.12 281.144 1171.11 281.353 1171.08 281.561H1164.38ZM1167.14 278.022C1166.4 278.022 1165.78 278.233 1165.28 278.655C1164.79 279.077 1164.49 279.639 1164.38 280.342H1169.72C1169.6 279.587 1169.3 279.012 1168.82 278.616C1168.34 278.22 1167.78 278.022 1167.14 278.022ZM1179.32 275.131H1174.36V278.764H1179.11V280.17H1174.36V284.92H1172.88V273.717H1179.32V275.131ZM1181.68 275.467C1181.41 275.467 1181.19 275.379 1181.01 275.202C1180.83 275.019 1180.73 274.798 1180.73 274.538C1180.73 274.277 1180.83 274.056 1181.01 273.874C1181.19 273.686 1181.41 273.592 1181.68 273.592C1181.93 273.592 1182.15 273.686 1182.34 273.874C1182.52 274.056 1182.61 274.277 1182.61 274.538C1182.61 274.793 1182.52 275.012 1182.34 275.194C1182.15 275.376 1181.93 275.467 1181.68 275.467ZM1180.98 284.92V276.92H1182.37V284.92H1180.98Z" fill="#142528"/>
<path d="M1112 323.587C1109.05 323.587 1106.67 325.975 1106.67 328.92C1106.67 331.866 1109.05 334.254 1112 334.254C1114.95 334.254 1117.33 331.866 1117.33 328.92C1117.33 325.975 1114.95 323.587 1112 323.587ZM1111 307.92L1111 328.92L1113 328.92L1113 307.92L1111 307.92Z" fill="#8A92A6"/>
<path d="M936.089 724.918V725.802H934.019V731.92H933.101V725.802H931.04V724.918H936.089ZM939.409 726.789C939.998 726.789 940.469 726.974 940.82 727.345C941.172 727.713 941.348 728.214 941.348 728.849V731.92H940.479V728.903C940.479 728.496 940.368 728.18 940.146 727.956C939.928 727.731 939.626 727.619 939.238 727.619C938.809 727.619 938.459 727.754 938.188 728.024C937.922 728.294 937.788 728.709 937.788 729.269V731.92H936.919V724.918H937.788V727.638C938.143 727.072 938.683 726.789 939.409 726.789ZM943.174 729.821C943.258 730.264 943.464 730.61 943.789 730.861C944.115 731.108 944.513 731.232 944.985 731.232C945.314 731.232 945.602 731.165 945.85 731.032C946.1 730.895 946.292 730.718 946.426 730.5L947.163 730.919C946.935 731.271 946.632 731.548 946.255 731.75C945.881 731.951 945.451 732.052 944.966 732.052C944.172 732.052 943.525 731.803 943.027 731.305C942.533 730.807 942.285 730.179 942.285 729.42C942.285 728.672 942.529 728.047 943.018 727.545C943.506 727.041 944.134 726.789 944.902 726.789C945.391 726.789 945.827 726.912 946.211 727.16C946.595 727.404 946.888 727.726 947.09 728.126C947.292 728.527 947.393 728.961 947.393 729.43C947.393 729.56 947.383 729.691 947.363 729.821H943.174ZM944.902 727.609C944.437 727.609 944.049 727.741 943.74 728.004C943.434 728.268 943.245 728.62 943.174 729.059H946.514C946.442 728.587 946.255 728.227 945.952 727.98C945.653 727.733 945.303 727.609 944.902 727.609ZM948.94 728.268C948.94 728.395 948.979 728.506 949.058 728.6C949.139 728.691 949.245 728.763 949.375 728.815C949.508 728.867 949.658 728.921 949.824 728.976C949.993 729.028 950.164 729.075 950.337 729.118C950.513 729.16 950.684 729.22 950.85 729.298C951.019 729.376 951.169 729.466 951.299 729.567C951.432 729.665 951.538 729.798 951.616 729.967C951.698 730.137 951.738 730.33 951.738 730.548C951.738 731.004 951.562 731.369 951.211 731.642C950.859 731.916 950.412 732.052 949.868 732.052C949.383 732.052 948.968 731.946 948.623 731.735C948.278 731.52 948.031 731.235 947.881 730.88L948.628 730.451C948.709 730.692 948.859 730.882 949.077 731.022C949.299 731.162 949.562 731.232 949.868 731.232C950.158 731.232 950.396 731.177 950.581 731.066C950.767 730.952 950.859 730.779 950.859 730.548C950.859 730.421 950.819 730.312 950.737 730.221C950.659 730.127 950.553 730.054 950.42 730.001C950.29 729.946 950.14 729.892 949.971 729.84C949.805 729.785 949.634 729.736 949.458 729.694C949.285 729.652 949.115 729.591 948.945 729.513C948.779 729.435 948.63 729.347 948.496 729.25C948.366 729.152 948.26 729.02 948.179 728.854C948.101 728.688 948.062 728.498 948.062 728.283C948.062 727.847 948.229 727.488 948.564 727.208C948.9 726.929 949.321 726.789 949.829 726.789C950.236 726.789 950.597 726.881 950.913 727.067C951.229 727.249 951.468 727.503 951.631 727.829L950.898 728.239C950.807 728.024 950.664 727.864 950.469 727.76C950.277 727.653 950.063 727.599 949.829 727.599C949.585 727.599 949.375 727.658 949.199 727.775C949.027 727.892 948.94 728.056 948.94 728.268ZM953.232 729.821C953.317 730.264 953.522 730.61 953.848 730.861C954.173 731.108 954.572 731.232 955.044 731.232C955.373 731.232 955.661 731.165 955.908 731.032C956.159 730.895 956.351 730.718 956.484 730.5L957.222 730.919C956.994 731.271 956.691 731.548 956.313 731.75C955.939 731.951 955.509 732.052 955.024 732.052C954.23 732.052 953.584 731.803 953.086 731.305C952.591 730.807 952.344 730.179 952.344 729.42C952.344 728.672 952.588 728.047 953.076 727.545C953.564 727.041 954.193 726.789 954.961 726.789C955.449 726.789 955.885 726.912 956.27 727.16C956.654 727.404 956.947 727.726 957.148 728.126C957.35 728.527 957.451 728.961 957.451 729.43C957.451 729.56 957.441 729.691 957.422 729.821H953.232ZM954.961 727.609C954.495 727.609 954.108 727.741 953.799 728.004C953.493 728.268 953.304 728.62 953.232 729.059H956.572C956.501 728.587 956.313 728.227 956.011 727.98C955.711 727.733 955.361 727.609 954.961 727.609ZM964.922 726.92V731.92H964.053V727.76H962.202V731.92H961.333V727.76H960.532V726.92H961.333V726.769C961.333 726.108 961.519 725.613 961.89 725.285C962.261 724.956 962.806 724.792 963.525 724.792C963.796 724.792 964.137 724.834 964.551 724.918V725.709C964.144 725.657 963.802 725.631 963.525 725.631C963.073 725.631 962.739 725.716 962.524 725.885C962.31 726.055 962.202 726.349 962.202 726.769V726.92H964.922ZM970.405 726.92H971.265V731.71C971.265 732.088 971.193 732.428 971.05 732.731C970.907 733.034 970.715 733.279 970.474 733.468C970.236 733.657 969.966 733.8 969.663 733.898C969.364 733.999 969.048 734.049 968.716 734.049C968.156 734.049 967.673 733.944 967.266 733.732C966.859 733.524 966.553 733.222 966.348 732.829L967.104 732.399C967.189 732.568 967.292 732.711 967.412 732.829C967.533 732.946 967.705 733.043 967.93 733.122C968.154 733.2 968.423 733.239 968.735 733.239C969.253 733.239 969.66 733.102 969.956 732.829C970.256 732.555 970.405 732.182 970.405 731.71V731.002C970.2 731.318 969.938 731.564 969.619 731.74C969.3 731.912 968.936 731.999 968.525 731.999C967.816 731.999 967.214 731.746 966.719 731.242C966.224 730.737 965.977 730.12 965.977 729.391C965.977 728.916 966.089 728.48 966.313 728.083C966.541 727.682 966.851 727.366 967.241 727.135C967.632 726.904 968.06 726.789 968.525 726.789C968.936 726.789 969.3 726.876 969.619 727.052C969.938 727.225 970.2 727.467 970.405 727.78V726.92ZM967.358 730.661C967.7 730.999 968.123 731.168 968.628 731.168C969.132 731.168 969.554 730.999 969.893 730.661C970.234 730.319 970.405 729.896 970.405 729.391C970.405 728.89 970.234 728.47 969.893 728.131C969.554 727.79 969.132 727.619 968.628 727.619C968.123 727.619 967.7 727.79 967.358 728.131C967.017 728.47 966.846 728.89 966.846 729.391C966.846 729.896 967.017 730.319 967.358 730.661ZM976.035 726.92H976.904V731.92H976.035V731.203C975.68 731.769 975.14 732.052 974.414 732.052C973.825 732.052 973.354 731.868 973.003 731.5C972.651 731.129 972.476 730.626 972.476 729.992V726.92H973.345V729.938C973.345 730.345 973.454 730.661 973.672 730.885C973.893 731.11 974.198 731.222 974.585 731.222C975.015 731.222 975.363 731.087 975.63 730.817C975.9 730.547 976.035 730.132 976.035 729.572V726.92ZM979.097 727.76C979.383 727.142 979.904 726.833 980.659 726.833V727.741C980.461 727.734 980.272 727.755 980.093 727.804C979.917 727.853 979.753 727.934 979.6 728.048C979.447 728.159 979.325 728.32 979.233 728.532C979.142 728.74 979.097 728.986 979.097 729.269V731.92H978.228V726.92H979.097V727.76ZM981.846 729.821C981.93 730.264 982.135 730.61 982.461 730.861C982.786 731.108 983.185 731.232 983.657 731.232C983.986 731.232 984.274 731.165 984.521 731.032C984.772 730.895 984.964 730.718 985.098 730.5L985.835 730.919C985.607 731.271 985.304 731.548 984.927 731.75C984.552 731.951 984.123 732.052 983.638 732.052C982.843 732.052 982.197 731.803 981.699 731.305C981.204 730.807 980.957 730.179 980.957 729.42C980.957 728.672 981.201 728.047 981.689 727.545C982.178 727.041 982.806 726.789 983.574 726.789C984.062 726.789 984.499 726.912 984.883 727.16C985.267 727.404 985.56 727.726 985.762 728.126C985.964 728.527 986.064 728.961 986.064 729.43C986.064 729.56 986.055 729.691 986.035 729.821H981.846ZM983.574 727.609C983.109 727.609 982.721 727.741 982.412 728.004C982.106 728.268 981.917 728.62 981.846 729.059H985.186C985.114 728.587 984.927 728.227 984.624 727.98C984.325 727.733 983.975 727.609 983.574 727.609ZM987.612 728.268C987.612 728.395 987.651 728.506 987.729 728.6C987.811 728.691 987.917 728.763 988.047 728.815C988.18 728.867 988.33 728.921 988.496 728.976C988.665 729.028 988.836 729.075 989.009 729.118C989.185 729.16 989.355 729.22 989.521 729.298C989.691 729.376 989.84 729.466 989.971 729.567C990.104 729.665 990.21 729.798 990.288 729.967C990.369 730.137 990.41 730.33 990.41 730.548C990.41 731.004 990.234 731.369 989.883 731.642C989.531 731.916 989.084 732.052 988.54 732.052C988.055 732.052 987.64 731.946 987.295 731.735C986.95 731.52 986.702 731.235 986.553 730.88L987.3 730.451C987.381 730.692 987.531 730.882 987.749 731.022C987.97 731.162 988.234 731.232 988.54 731.232C988.83 731.232 989.067 731.177 989.253 731.066C989.438 730.952 989.531 730.779 989.531 730.548C989.531 730.421 989.491 730.312 989.409 730.221C989.331 730.127 989.225 730.054 989.092 730.001C988.962 729.946 988.812 729.892 988.643 729.84C988.477 729.785 988.306 729.736 988.13 729.694C987.957 729.652 987.786 729.591 987.617 729.513C987.451 729.435 987.301 729.347 987.168 729.25C987.038 729.152 986.932 729.02 986.851 728.854C986.772 728.688 986.733 728.498 986.733 728.283C986.733 727.847 986.901 727.488 987.236 727.208C987.572 726.929 987.993 726.789 988.501 726.789C988.908 726.789 989.269 726.881 989.585 727.067C989.901 727.249 990.14 727.503 990.303 727.829L989.57 728.239C989.479 728.024 989.336 727.864 989.141 727.76C988.949 727.653 988.735 727.599 988.501 727.599C988.257 727.599 988.047 727.658 987.871 727.775C987.699 727.892 987.612 728.056 987.612 728.268ZM998.081 726.92H998.95V731.92H998.081V731.061C997.876 731.374 997.612 731.618 997.29 731.793C996.971 731.966 996.605 732.052 996.191 732.052C995.732 732.052 995.309 731.937 994.922 731.706C994.535 731.474 994.227 731.157 993.999 730.753C993.774 730.35 993.662 729.905 993.662 729.42C993.662 728.935 993.774 728.491 993.999 728.087C994.227 727.684 994.535 727.366 994.922 727.135C995.309 726.904 995.732 726.789 996.191 726.789C996.605 726.789 996.971 726.876 997.29 727.052C997.612 727.225 997.876 727.467 998.081 727.78V726.92ZM996.299 731.212C996.803 731.212 997.227 731.042 997.568 730.7C997.91 730.358 998.081 729.931 998.081 729.42C998.081 728.909 997.91 728.483 997.568 728.141C997.227 727.799 996.803 727.628 996.299 727.628C995.798 727.628 995.378 727.799 995.039 728.141C994.701 728.483 994.531 728.909 994.531 729.42C994.531 729.931 994.701 730.358 995.039 730.7C995.378 731.042 995.798 731.212 996.299 731.212ZM1001.14 727.76C1001.42 727.142 1001.94 726.833 1002.7 726.833V727.741C1002.5 727.734 1002.31 727.755 1002.13 727.804C1001.96 727.853 1001.79 727.934 1001.64 728.048C1001.49 728.159 1001.37 728.32 1001.27 728.532C1001.18 728.74 1001.14 728.986 1001.14 729.269V731.92H1000.27V726.92H1001.14V727.76ZM1003.89 729.821C1003.97 730.264 1004.18 730.61 1004.5 730.861C1004.83 731.108 1005.23 731.232 1005.7 731.232C1006.03 731.232 1006.32 731.165 1006.56 731.032C1006.81 730.895 1007.01 730.718 1007.14 730.5L1007.88 730.919C1007.65 731.271 1007.35 731.548 1006.97 731.75C1006.59 731.951 1006.16 732.052 1005.68 732.052C1004.88 732.052 1004.24 731.803 1003.74 731.305C1003.25 730.807 1003 730.179 1003 729.42C1003 728.672 1003.24 728.047 1003.73 727.545C1004.22 727.041 1004.85 726.789 1005.62 726.789C1006.1 726.789 1006.54 726.912 1006.92 727.16C1007.31 727.404 1007.6 727.726 1007.8 728.126C1008 728.527 1008.11 728.961 1008.11 729.43C1008.11 729.56 1008.1 729.691 1008.08 729.821H1003.89ZM1005.62 727.609C1005.15 727.609 1004.76 727.741 1004.45 728.004C1004.15 728.268 1003.96 728.62 1003.89 729.059H1007.23C1007.15 728.587 1006.97 728.227 1006.67 727.98C1006.37 727.733 1006.02 727.609 1005.62 727.609ZM1017.01 726.789C1017.57 726.789 1018.02 726.971 1018.36 727.335C1018.71 727.7 1018.89 728.192 1018.89 728.81V731.92H1018.02V728.839C1018.02 728.452 1017.92 728.153 1017.72 727.941C1017.52 727.726 1017.25 727.619 1016.92 727.619C1016.55 727.619 1016.25 727.744 1016.03 727.995C1015.8 728.245 1015.69 728.628 1015.69 729.142V731.92H1014.82V728.839C1014.82 728.449 1014.72 728.148 1014.53 727.936C1014.34 727.724 1014.08 727.619 1013.75 727.619C1013.39 727.619 1013.09 727.746 1012.84 728C1012.6 728.253 1012.48 728.634 1012.48 729.142V731.92H1011.61V726.92H1012.48V727.589C1012.82 727.056 1013.32 726.789 1013.96 726.789C1014.3 726.789 1014.59 726.862 1014.84 727.008C1015.09 727.155 1015.29 727.365 1015.44 727.638C1015.61 727.358 1015.83 727.147 1016.1 727.003C1016.37 726.86 1016.67 726.789 1017.01 726.789ZM1020.7 729.821C1020.79 730.264 1020.99 730.61 1021.32 730.861C1021.64 731.108 1022.04 731.232 1022.51 731.232C1022.84 731.232 1023.13 731.165 1023.38 731.032C1023.63 730.895 1023.82 730.718 1023.96 730.5L1024.69 730.919C1024.46 731.271 1024.16 731.548 1023.78 731.75C1023.41 731.951 1022.98 732.052 1022.5 732.052C1021.7 732.052 1021.05 731.803 1020.56 731.305C1020.06 730.807 1019.81 730.179 1019.81 729.42C1019.81 728.672 1020.06 728.047 1020.55 727.545C1021.04 727.041 1021.66 726.789 1022.43 726.789C1022.92 726.789 1023.36 726.912 1023.74 727.16C1024.12 727.404 1024.42 727.726 1024.62 728.126C1024.82 728.527 1024.92 728.961 1024.92 729.43C1024.92 729.56 1024.91 729.691 1024.89 729.821H1020.7ZM1022.43 727.609C1021.97 727.609 1021.58 727.741 1021.27 728.004C1020.96 728.268 1020.77 728.62 1020.7 729.059H1024.04C1023.97 728.587 1023.78 728.227 1023.48 727.98C1023.18 727.733 1022.83 727.609 1022.43 727.609ZM1030.05 726.92H1030.92V731.92H1030.05V731.061C1029.85 731.374 1029.58 731.618 1029.26 731.793C1028.94 731.966 1028.58 732.052 1028.16 732.052C1027.71 732.052 1027.28 731.937 1026.89 731.706C1026.51 731.474 1026.2 731.157 1025.97 730.753C1025.75 730.35 1025.63 729.905 1025.63 729.42C1025.63 728.935 1025.75 728.491 1025.97 728.087C1026.2 727.684 1026.51 727.366 1026.89 727.135C1027.28 726.904 1027.71 726.789 1028.16 726.789C1028.58 726.789 1028.94 726.876 1029.26 727.052C1029.58 727.225 1029.85 727.467 1030.05 727.78V726.92ZM1028.27 731.212C1028.78 731.212 1029.2 731.042 1029.54 730.7C1029.88 730.358 1030.05 729.931 1030.05 729.42C1030.05 728.909 1029.88 728.483 1029.54 728.141C1029.2 727.799 1028.78 727.628 1028.27 727.628C1027.77 727.628 1027.35 727.799 1027.01 728.141C1026.67 728.483 1026.5 728.909 1026.5 729.42C1026.5 729.931 1026.67 730.358 1027.01 730.7C1027.35 731.042 1027.77 731.212 1028.27 731.212ZM1034.73 726.789C1035.32 726.789 1035.79 726.974 1036.14 727.345C1036.49 727.713 1036.67 728.214 1036.67 728.849V731.92H1035.8V728.903C1035.8 728.496 1035.69 728.18 1035.47 727.956C1035.25 727.731 1034.95 727.619 1034.56 727.619C1034.13 727.619 1033.78 727.754 1033.51 728.024C1033.24 728.294 1033.11 728.709 1033.11 729.269V731.92H1032.24V726.92H1033.11V727.638C1033.47 727.072 1034.01 726.789 1034.73 726.789ZM1040.61 727.76H1039.28V730.47C1039.28 730.714 1039.33 730.889 1039.42 730.993C1039.52 731.094 1039.67 731.147 1039.86 731.154C1040.06 731.157 1040.31 731.152 1040.61 731.139V731.92C1039.85 732.021 1039.29 731.959 1038.94 731.735C1038.58 731.51 1038.41 731.089 1038.41 730.47V727.76H1037.42V726.92H1038.41V725.783L1039.28 725.519V726.92H1040.61V727.76ZM1046.88 727.76H1045.56V730.47C1045.56 730.714 1045.61 730.889 1045.7 730.993C1045.8 731.094 1045.95 731.147 1046.14 731.154C1046.34 731.157 1046.59 731.152 1046.88 731.139V731.92C1046.13 732.021 1045.57 731.959 1045.21 731.735C1044.86 731.51 1044.69 731.089 1044.69 730.47V727.76H1043.7V726.92H1044.69V725.783L1045.56 725.519V726.92H1046.88V727.76ZM1051.33 731.706C1050.93 731.937 1050.49 732.052 1050.01 732.052C1049.53 732.052 1049.09 731.937 1048.69 731.706C1048.28 731.474 1047.96 731.157 1047.73 730.753C1047.5 730.35 1047.38 729.905 1047.38 729.42C1047.38 728.935 1047.5 728.491 1047.73 728.087C1047.96 727.684 1048.28 727.366 1048.69 727.135C1049.09 726.904 1049.53 726.789 1050.01 726.789C1050.49 726.789 1050.93 726.904 1051.33 727.135C1051.74 727.366 1052.06 727.684 1052.29 728.087C1052.53 728.491 1052.65 728.935 1052.65 729.42C1052.65 729.905 1052.53 730.35 1052.29 730.753C1052.06 731.157 1051.74 731.474 1051.33 731.706ZM1050.01 731.203C1050.51 731.203 1050.93 731.032 1051.27 730.69C1051.61 730.348 1051.78 729.925 1051.78 729.42C1051.78 728.916 1051.61 728.493 1051.27 728.151C1050.93 727.809 1050.51 727.638 1050.01 727.638C1049.51 727.638 1049.1 727.809 1048.76 728.151C1048.42 728.493 1048.25 728.916 1048.25 729.42C1048.25 729.925 1048.42 730.348 1048.76 730.69C1049.1 731.032 1049.51 731.203 1050.01 731.203ZM1058.94 726.789C1059.39 726.789 1059.82 726.904 1060.21 727.135C1060.59 727.366 1060.9 727.684 1061.13 728.087C1061.36 728.491 1061.47 728.935 1061.47 729.42C1061.47 729.905 1061.36 730.35 1061.13 730.753C1060.9 731.157 1060.59 731.474 1060.21 731.706C1059.82 731.937 1059.39 732.052 1058.94 732.052C1058.52 732.052 1058.15 731.966 1057.83 731.793C1057.51 731.618 1057.25 731.374 1057.05 731.061V731.92H1056.18V724.918H1057.05V727.78C1057.25 727.467 1057.51 727.225 1057.83 727.052C1058.15 726.876 1058.52 726.789 1058.94 726.789ZM1058.83 731.212C1059.33 731.212 1059.75 731.042 1060.09 730.7C1060.43 730.358 1060.6 729.931 1060.6 729.42C1060.6 728.909 1060.43 728.483 1060.09 728.141C1059.75 727.799 1059.33 727.628 1058.83 727.628C1058.32 727.628 1057.9 727.799 1057.56 728.141C1057.22 728.483 1057.05 728.909 1057.05 729.42C1057.05 729.931 1057.22 730.358 1057.56 730.7C1057.9 731.042 1058.32 731.212 1058.83 731.212ZM1063.12 729.821C1063.2 730.264 1063.4 730.61 1063.73 730.861C1064.06 731.108 1064.45 731.232 1064.93 731.232C1065.26 731.232 1065.54 731.165 1065.79 731.032C1066.04 730.895 1066.23 730.718 1066.37 730.5L1067.1 730.919C1066.88 731.271 1066.57 731.548 1066.2 731.75C1065.82 731.951 1065.39 732.052 1064.91 732.052C1064.11 732.052 1063.47 731.803 1062.97 731.305C1062.47 730.807 1062.23 730.179 1062.23 729.42C1062.23 728.672 1062.47 728.047 1062.96 727.545C1063.45 727.041 1064.08 726.789 1064.84 726.789C1065.33 726.789 1065.77 726.912 1066.15 727.16C1066.54 727.404 1066.83 727.726 1067.03 728.126C1067.23 728.527 1067.33 728.961 1067.33 729.43C1067.33 729.56 1067.32 729.691 1067.3 729.821H1063.12ZM1064.84 727.609C1064.38 727.609 1063.99 727.741 1063.68 728.004C1063.38 728.268 1063.19 728.62 1063.12 729.059H1066.46C1066.38 728.587 1066.2 728.227 1065.89 727.98C1065.59 727.733 1065.24 727.609 1064.84 727.609ZM1071.7 727.76C1071.99 727.142 1072.51 726.833 1073.27 726.833V727.741C1073.07 727.734 1072.88 727.755 1072.7 727.804C1072.52 727.853 1072.36 727.934 1072.21 728.048C1072.05 728.159 1071.93 728.32 1071.84 728.532C1071.75 728.74 1071.7 728.986 1071.7 729.269V731.92H1070.83V726.92H1071.7V727.76ZM1074.45 729.821C1074.54 730.264 1074.74 730.61 1075.07 730.861C1075.39 731.108 1075.79 731.232 1076.26 731.232C1076.59 731.232 1076.88 731.165 1077.13 731.032C1077.38 730.895 1077.57 730.718 1077.71 730.5L1078.44 730.919C1078.21 731.271 1077.91 731.548 1077.53 731.75C1077.16 731.951 1076.73 732.052 1076.25 732.052C1075.45 732.052 1074.8 731.803 1074.31 731.305C1073.81 730.807 1073.56 730.179 1073.56 729.42C1073.56 728.672 1073.81 728.047 1074.3 727.545C1074.79 727.041 1075.41 726.789 1076.18 726.789C1076.67 726.789 1077.11 726.912 1077.49 727.16C1077.87 727.404 1078.17 727.726 1078.37 728.126C1078.57 728.527 1078.67 728.961 1078.67 729.43C1078.67 729.56 1078.66 729.691 1078.64 729.821H1074.45ZM1076.18 727.609C1075.72 727.609 1075.33 727.741 1075.02 728.004C1074.71 728.268 1074.52 728.62 1074.45 729.059H1077.79C1077.72 728.587 1077.53 728.227 1077.23 727.98C1076.93 727.733 1076.58 727.609 1076.18 727.609ZM1082.43 726.789C1082.89 726.789 1083.31 726.904 1083.7 727.135C1084.09 727.366 1084.4 727.684 1084.62 728.087C1084.85 728.491 1084.97 728.935 1084.97 729.42C1084.97 729.905 1084.85 730.35 1084.62 730.753C1084.4 731.157 1084.09 731.474 1083.7 731.706C1083.31 731.937 1082.89 732.052 1082.43 732.052C1082.02 732.052 1081.65 731.966 1081.33 731.793C1081.01 731.618 1080.75 731.374 1080.54 731.061V733.922H1079.67V726.92H1080.54V727.78C1080.75 727.467 1081.01 727.225 1081.33 727.052C1081.65 726.876 1082.02 726.789 1082.43 726.789ZM1082.32 731.212C1082.83 731.212 1083.25 731.042 1083.58 730.7C1083.92 730.358 1084.09 729.931 1084.09 729.42C1084.09 728.909 1083.92 728.483 1083.58 728.141C1083.25 727.799 1082.83 727.628 1082.32 727.628C1081.82 727.628 1081.4 727.799 1081.05 728.141C1080.71 728.483 1080.54 728.909 1080.54 729.42C1080.54 729.931 1080.71 730.358 1081.05 730.7C1081.4 731.042 1081.82 731.212 1082.32 731.212ZM1086.87 727.76C1087.16 727.142 1087.68 726.833 1088.43 726.833V727.741C1088.23 727.734 1088.05 727.755 1087.87 727.804C1087.69 727.853 1087.53 727.934 1087.37 728.048C1087.22 728.159 1087.1 728.32 1087.01 728.532C1086.92 728.74 1086.87 728.986 1086.87 729.269V731.92H1086V726.92H1086.87V727.76ZM1089.62 729.821C1089.7 730.264 1089.91 730.61 1090.23 730.861C1090.56 731.108 1090.96 731.232 1091.43 731.232C1091.76 731.232 1092.05 731.165 1092.29 731.032C1092.55 730.895 1092.74 730.718 1092.87 730.5L1093.61 730.919C1093.38 731.271 1093.08 731.548 1092.7 731.75C1092.33 731.951 1091.9 732.052 1091.41 732.052C1090.62 732.052 1089.97 731.803 1089.47 731.305C1088.98 730.807 1088.73 730.179 1088.73 729.42C1088.73 728.672 1088.97 728.047 1089.46 727.545C1089.95 727.041 1090.58 726.789 1091.35 726.789C1091.84 726.789 1092.27 726.912 1092.66 727.16C1093.04 727.404 1093.33 727.726 1093.54 728.126C1093.74 728.527 1093.84 728.961 1093.84 729.43C1093.84 729.56 1093.83 729.691 1093.81 729.821H1089.62ZM1091.35 727.609C1090.88 727.609 1090.49 727.741 1090.19 728.004C1089.88 728.268 1089.69 728.62 1089.62 729.059H1092.96C1092.89 728.587 1092.7 728.227 1092.4 727.98C1092.1 727.733 1091.75 727.609 1091.35 727.609ZM1095.39 728.268C1095.39 728.395 1095.42 728.506 1095.5 728.6C1095.58 728.691 1095.69 728.763 1095.82 728.815C1095.95 728.867 1096.1 728.921 1096.27 728.976C1096.44 729.028 1096.61 729.075 1096.78 729.118C1096.96 729.16 1097.13 729.22 1097.29 729.298C1097.46 729.376 1097.61 729.466 1097.74 729.567C1097.88 729.665 1097.98 729.798 1098.06 729.967C1098.14 730.137 1098.18 730.33 1098.18 730.548C1098.18 731.004 1098.01 731.369 1097.66 731.642C1097.3 731.916 1096.86 732.052 1096.31 732.052C1095.83 732.052 1095.41 731.946 1095.07 731.735C1094.72 731.52 1094.48 731.235 1094.33 730.88L1095.07 730.451C1095.15 730.692 1095.3 730.882 1095.52 731.022C1095.74 731.162 1096.01 731.232 1096.31 731.232C1096.6 731.232 1096.84 731.177 1097.03 731.066C1097.21 730.952 1097.3 730.779 1097.3 730.548C1097.3 730.421 1097.26 730.312 1097.18 730.221C1097.1 730.127 1097 730.054 1096.87 730.001C1096.74 729.946 1096.59 729.892 1096.42 729.84C1096.25 729.785 1096.08 729.736 1095.9 729.694C1095.73 729.652 1095.56 729.591 1095.39 729.513C1095.22 729.435 1095.07 729.347 1094.94 729.25C1094.81 729.152 1094.71 729.02 1094.62 728.854C1094.55 728.688 1094.51 728.498 1094.51 728.283C1094.51 727.847 1094.67 727.488 1095.01 727.208C1095.35 726.929 1095.77 726.789 1096.27 726.789C1096.68 726.789 1097.04 726.881 1097.36 727.067C1097.67 727.249 1097.91 727.503 1098.08 727.829L1097.34 728.239C1097.25 728.024 1097.11 727.864 1096.91 727.76C1096.72 727.653 1096.51 727.599 1096.27 727.599C1096.03 727.599 1095.82 727.658 1095.64 727.775C1095.47 727.892 1095.39 728.056 1095.39 728.268ZM1099.68 729.821C1099.76 730.264 1099.97 730.61 1100.29 730.861C1100.62 731.108 1101.02 731.232 1101.49 731.232C1101.82 731.232 1102.11 731.165 1102.35 731.032C1102.6 730.895 1102.8 730.718 1102.93 730.5L1103.67 730.919C1103.44 731.271 1103.14 731.548 1102.76 731.75C1102.38 731.951 1101.95 732.052 1101.47 732.052C1100.68 732.052 1100.03 731.803 1099.53 731.305C1099.04 730.807 1098.79 730.179 1098.79 729.42C1098.79 728.672 1099.03 728.047 1099.52 727.545C1100.01 727.041 1100.64 726.789 1101.41 726.789C1101.89 726.789 1102.33 726.912 1102.71 727.16C1103.1 727.404 1103.39 727.726 1103.59 728.126C1103.8 728.527 1103.9 728.961 1103.9 729.43C1103.9 729.56 1103.89 729.691 1103.87 729.821H1099.68ZM1101.41 727.609C1100.94 727.609 1100.55 727.741 1100.24 728.004C1099.94 728.268 1099.75 728.62 1099.68 729.059H1103.02C1102.95 728.587 1102.76 728.227 1102.46 727.98C1102.16 727.733 1101.81 727.609 1101.41 727.609ZM1107.39 726.789C1107.98 726.789 1108.45 726.974 1108.8 727.345C1109.15 727.713 1109.33 728.214 1109.33 728.849V731.92H1108.46V728.903C1108.46 728.496 1108.35 728.18 1108.12 727.956C1107.91 727.731 1107.6 727.619 1107.22 727.619C1106.79 727.619 1106.44 727.754 1106.17 728.024C1105.9 728.294 1105.77 728.709 1105.77 729.269V731.92H1104.9V726.92H1105.77V727.638C1106.12 727.072 1106.66 726.789 1107.39 726.789ZM1113.26 727.76H1111.93V730.47C1111.93 730.714 1111.98 730.889 1112.08 730.993C1112.18 731.094 1112.32 731.147 1112.52 731.154C1112.72 731.157 1112.97 731.152 1113.26 731.139V731.92C1112.5 732.021 1111.95 731.959 1111.59 731.735C1111.24 731.51 1111.06 731.089 1111.06 730.47V727.76H1110.07V726.92H1111.06V725.783L1111.93 725.519V726.92H1113.26V727.76ZM1118.18 726.92H1119.05V731.92H1118.18V731.061C1117.97 731.374 1117.71 731.618 1117.39 731.793C1117.07 731.966 1116.7 732.052 1116.29 732.052C1115.83 732.052 1115.41 731.937 1115.02 731.706C1114.63 731.474 1114.32 731.157 1114.1 730.753C1113.87 730.35 1113.76 729.905 1113.76 729.42C1113.76 728.935 1113.87 728.491 1114.1 728.087C1114.32 727.684 1114.63 727.366 1115.02 727.135C1115.41 726.904 1115.83 726.789 1116.29 726.789C1116.7 726.789 1117.07 726.876 1117.39 727.052C1117.71 727.225 1117.97 727.467 1118.18 727.78V726.92ZM1116.4 731.212C1116.9 731.212 1117.32 731.042 1117.67 730.7C1118.01 730.358 1118.18 729.931 1118.18 729.42C1118.18 728.909 1118.01 728.483 1117.67 728.141C1117.32 727.799 1116.9 727.628 1116.4 727.628C1115.9 727.628 1115.48 727.799 1115.14 728.141C1114.8 728.483 1114.63 728.909 1114.63 729.42C1114.63 729.931 1114.8 730.358 1115.14 730.7C1115.48 731.042 1115.9 731.212 1116.4 731.212ZM1123.09 727.76H1121.76V730.47C1121.76 730.714 1121.81 730.889 1121.9 730.993C1122 731.094 1122.15 731.147 1122.34 731.154C1122.54 731.157 1122.79 731.152 1123.09 731.139V731.92C1122.33 732.021 1121.77 731.959 1121.42 731.735C1121.06 731.51 1120.89 731.089 1120.89 730.47V727.76H1119.9V726.92H1120.89V725.783L1121.76 725.519V726.92H1123.09V727.76ZM1124.56 726.012C1124.39 726.012 1124.25 725.957 1124.14 725.846C1124.02 725.732 1123.96 725.594 1123.96 725.431C1123.96 725.268 1124.02 725.13 1124.14 725.016C1124.25 724.899 1124.39 724.84 1124.56 724.84C1124.72 724.84 1124.85 724.899 1124.97 725.016C1125.08 725.13 1125.14 725.268 1125.14 725.431C1125.14 725.591 1125.08 725.727 1124.97 725.841C1124.85 725.955 1124.72 726.012 1124.56 726.012ZM1124.12 731.92V726.92H1124.99V731.92H1124.12ZM1129.81 726.92H1130.75L1128.75 731.92H1127.73L1125.73 726.92H1126.67L1128.24 730.993L1129.81 726.92ZM1131.89 729.821C1131.98 730.264 1132.18 730.61 1132.51 730.861C1132.84 731.108 1133.23 731.232 1133.71 731.232C1134.03 731.232 1134.32 731.165 1134.57 731.032C1134.82 730.895 1135.01 730.718 1135.15 730.5L1135.88 730.919C1135.66 731.271 1135.35 731.548 1134.98 731.75C1134.6 731.951 1134.17 732.052 1133.69 732.052C1132.89 732.052 1132.25 731.803 1131.75 731.305C1131.25 730.807 1131.01 730.179 1131.01 729.42C1131.01 728.672 1131.25 728.047 1131.74 727.545C1132.23 727.041 1132.85 726.789 1133.62 726.789C1134.11 726.789 1134.55 726.912 1134.93 727.16C1135.32 727.404 1135.61 727.726 1135.81 728.126C1136.01 728.527 1136.11 728.961 1136.11 729.43C1136.11 729.56 1136.1 729.691 1136.08 729.821H1131.89ZM1133.62 727.609C1133.16 727.609 1132.77 727.741 1132.46 728.004C1132.15 728.268 1131.97 728.62 1131.89 729.059H1135.23C1135.16 728.587 1134.98 728.227 1134.67 727.98C1134.37 727.733 1134.02 727.609 1133.62 727.609ZM1143.75 726.92H1144.62V731.92H1143.75V731.061C1143.55 731.374 1143.29 731.618 1142.96 731.793C1142.64 731.966 1142.28 732.052 1141.87 732.052C1141.41 732.052 1140.98 731.937 1140.6 731.706C1140.21 731.474 1139.9 731.157 1139.67 730.753C1139.45 730.35 1139.34 729.905 1139.34 729.42C1139.34 728.935 1139.45 728.491 1139.67 728.087C1139.9 727.684 1140.21 727.366 1140.6 727.135C1140.98 726.904 1141.41 726.789 1141.87 726.789C1142.28 726.789 1142.64 726.876 1142.96 727.052C1143.29 727.225 1143.55 727.467 1143.75 727.78V726.92ZM1141.97 731.212C1142.48 731.212 1142.9 731.042 1143.24 730.7C1143.58 730.358 1143.75 729.931 1143.75 729.42C1143.75 728.909 1143.58 728.483 1143.24 728.141C1142.9 727.799 1142.48 727.628 1141.97 727.628C1141.47 727.628 1141.05 727.799 1140.71 728.141C1140.37 728.483 1140.21 728.909 1140.21 729.42C1140.21 729.931 1140.37 730.358 1140.71 730.7C1141.05 731.042 1141.47 731.212 1141.97 731.212ZM1148.43 726.789C1149.02 726.789 1149.49 726.974 1149.84 727.345C1150.2 727.713 1150.37 728.214 1150.37 728.849V731.92H1149.5V728.903C1149.5 728.496 1149.39 728.18 1149.17 727.956C1148.95 727.731 1148.65 727.619 1148.26 727.619C1147.83 727.619 1147.48 727.754 1147.21 728.024C1146.94 728.294 1146.81 728.709 1146.81 729.269V731.92H1145.94V726.92H1146.81V727.638C1147.17 727.072 1147.71 726.789 1148.43 726.789ZM1155.73 724.918H1156.6V731.92H1155.73V731.061C1155.52 731.374 1155.26 731.618 1154.94 731.793C1154.62 731.966 1154.25 732.052 1153.84 732.052C1153.38 732.052 1152.96 731.937 1152.57 731.706C1152.18 731.474 1151.87 731.157 1151.65 730.753C1151.42 730.35 1151.31 729.905 1151.31 729.42C1151.31 728.935 1151.42 728.491 1151.65 728.087C1151.87 727.684 1152.18 727.366 1152.57 727.135C1152.96 726.904 1153.38 726.789 1153.84 726.789C1154.25 726.789 1154.62 726.876 1154.94 727.052C1155.26 727.225 1155.52 727.467 1155.73 727.78V724.918ZM1153.95 731.212C1154.45 731.212 1154.87 731.042 1155.21 730.7C1155.56 730.358 1155.73 729.931 1155.73 729.42C1155.73 728.909 1155.56 728.483 1155.21 728.141C1154.87 727.799 1154.45 727.628 1153.95 727.628C1153.44 727.628 1153.02 727.799 1152.69 728.141C1152.35 728.483 1152.18 728.909 1152.18 729.42C1152.18 729.931 1152.35 730.358 1152.69 730.7C1153.02 731.042 1153.44 731.212 1153.95 731.212ZM1164.56 726.92H1165.42V731.92H1164.56V731.061C1164.35 731.374 1164.09 731.618 1163.76 731.793C1163.45 731.966 1163.08 732.052 1162.67 732.052C1162.21 732.052 1161.78 731.937 1161.4 731.706C1161.01 731.474 1160.7 731.157 1160.47 730.753C1160.25 730.35 1160.14 729.905 1160.14 729.42C1160.14 728.935 1160.25 728.491 1160.47 728.087C1160.7 727.684 1161.01 727.366 1161.4 727.135C1161.78 726.904 1162.21 726.789 1162.67 726.789C1163.08 726.789 1163.45 726.876 1163.76 727.052C1164.09 727.225 1164.35 727.467 1164.56 727.78V726.92ZM1162.77 731.212C1163.28 731.212 1163.7 731.042 1164.04 730.7C1164.38 730.358 1164.56 729.931 1164.56 729.42C1164.56 728.909 1164.38 728.483 1164.04 728.141C1163.7 727.799 1163.28 727.628 1162.77 727.628C1162.27 727.628 1161.85 727.799 1161.51 728.141C1161.18 728.483 1161.01 728.909 1161.01 729.42C1161.01 729.931 1161.18 730.358 1161.51 730.7C1161.85 731.042 1162.27 731.212 1162.77 731.212ZM1167.61 727.76C1167.9 727.142 1168.42 726.833 1169.17 726.833V727.741C1168.98 727.734 1168.79 727.755 1168.61 727.804C1168.43 727.853 1168.27 727.934 1168.12 728.048C1167.96 728.159 1167.84 728.32 1167.75 728.532C1167.66 728.74 1167.61 728.986 1167.61 729.269V731.92H1166.74V726.92H1167.61V727.76ZM1170.36 729.821C1170.45 730.264 1170.65 730.61 1170.98 730.861C1171.3 731.108 1171.7 731.232 1172.17 731.232C1172.5 731.232 1172.79 731.165 1173.04 731.032C1173.29 730.895 1173.48 730.718 1173.61 730.5L1174.35 730.919C1174.12 731.271 1173.82 731.548 1173.44 731.75C1173.07 731.951 1172.64 732.052 1172.15 732.052C1171.36 732.052 1170.71 731.803 1170.21 731.305C1169.72 730.807 1169.47 730.179 1169.47 729.42C1169.47 728.672 1169.72 728.047 1170.21 727.545C1170.69 727.041 1171.32 726.789 1172.09 726.789C1172.58 726.789 1173.01 726.912 1173.4 727.16C1173.78 727.404 1174.08 727.726 1174.28 728.126C1174.48 728.527 1174.58 728.961 1174.58 729.43C1174.58 729.56 1174.57 729.691 1174.55 729.821H1170.36ZM1172.09 727.609C1171.62 727.609 1171.24 727.741 1170.93 728.004C1170.62 728.268 1170.43 728.62 1170.36 729.059H1173.7C1173.63 728.587 1173.44 728.227 1173.14 727.98C1172.84 727.733 1172.49 727.609 1172.09 727.609ZM1180.84 726.789C1181.3 726.789 1181.72 726.904 1182.11 727.135C1182.5 727.366 1182.8 727.684 1183.03 728.087C1183.26 728.491 1183.37 728.935 1183.37 729.42C1183.37 729.905 1183.26 730.35 1183.03 730.753C1182.8 731.157 1182.5 731.474 1182.11 731.706C1181.72 731.937 1181.3 732.052 1180.84 732.052C1180.43 732.052 1180.06 731.966 1179.74 731.793C1179.42 731.618 1179.16 731.374 1178.95 731.061V733.922H1178.08V726.92H1178.95V727.78C1179.16 727.467 1179.42 727.225 1179.74 727.052C1180.06 726.876 1180.43 726.789 1180.84 726.789ZM1180.73 731.212C1181.23 731.212 1181.65 731.042 1181.99 730.7C1182.33 730.358 1182.5 729.931 1182.5 729.42C1182.5 728.909 1182.33 728.483 1181.99 728.141C1181.65 727.799 1181.23 727.628 1180.73 727.628C1180.23 727.628 1179.8 727.799 1179.46 728.141C1179.12 728.483 1178.95 728.909 1178.95 729.42C1178.95 729.931 1179.12 730.358 1179.46 730.7C1179.8 731.042 1180.23 731.212 1180.73 731.212ZM1185.28 727.76C1185.56 727.142 1186.09 726.833 1186.84 726.833V727.741C1186.64 727.734 1186.45 727.755 1186.27 727.804C1186.1 727.853 1185.93 727.934 1185.78 728.048C1185.63 728.159 1185.51 728.32 1185.42 728.532C1185.32 728.74 1185.28 728.986 1185.28 729.269V731.92H1184.41V726.92H1185.28V727.76ZM1191.09 731.706C1190.69 731.937 1190.24 732.052 1189.77 732.052C1189.29 732.052 1188.85 731.937 1188.44 731.706C1188.04 731.474 1187.72 731.157 1187.49 730.753C1187.25 730.35 1187.14 729.905 1187.14 729.42C1187.14 728.935 1187.25 728.491 1187.49 728.087C1187.72 727.684 1188.04 727.366 1188.44 727.135C1188.85 726.904 1189.29 726.789 1189.77 726.789C1190.24 726.789 1190.69 726.904 1191.09 727.135C1191.5 727.366 1191.82 727.684 1192.05 728.087C1192.29 728.491 1192.41 728.935 1192.41 729.42C1192.41 729.905 1192.29 730.35 1192.05 730.753C1191.82 731.157 1191.5 731.474 1191.09 731.706ZM1189.77 731.203C1190.27 731.203 1190.69 731.032 1191.03 730.69C1191.37 730.348 1191.54 729.925 1191.54 729.42C1191.54 728.916 1191.37 728.493 1191.03 728.151C1190.69 727.809 1190.27 727.638 1189.77 727.638C1189.27 727.638 1188.85 727.809 1188.52 728.151C1188.18 728.493 1188.01 728.916 1188.01 729.42C1188.01 729.925 1188.18 730.348 1188.52 730.69C1188.85 731.032 1189.27 731.203 1189.77 731.203ZM1196.73 726.92H1197.67L1195.67 731.92H1194.65L1192.65 726.92H1193.59L1195.16 730.993L1196.73 726.92ZM1198.84 726.012C1198.68 726.012 1198.54 725.957 1198.42 725.846C1198.31 725.732 1198.25 725.594 1198.25 725.431C1198.25 725.268 1198.31 725.13 1198.42 725.016C1198.54 724.899 1198.68 724.84 1198.84 724.84C1199 724.84 1199.14 724.899 1199.25 725.016C1199.37 725.13 1199.42 725.268 1199.42 725.431C1199.42 725.591 1199.37 725.727 1199.25 725.841C1199.14 725.955 1199 726.012 1198.84 726.012ZM1198.4 731.92V726.92H1199.27V731.92H1198.4ZM1204.74 724.918H1205.61V731.92H1204.74V731.061C1204.54 731.374 1204.27 731.618 1203.95 731.793C1203.63 731.966 1203.26 732.052 1202.85 732.052C1202.39 732.052 1201.97 731.937 1201.58 731.706C1201.19 731.474 1200.89 731.157 1200.66 730.753C1200.43 730.35 1200.32 729.905 1200.32 729.42C1200.32 728.935 1200.43 728.491 1200.66 728.087C1200.89 727.684 1201.19 727.366 1201.58 727.135C1201.97 726.904 1202.39 726.789 1202.85 726.789C1203.26 726.789 1203.63 726.876 1203.95 727.052C1204.27 727.225 1204.54 727.467 1204.74 727.78V724.918ZM1202.96 731.212C1203.46 731.212 1203.89 731.042 1204.23 730.7C1204.57 730.358 1204.74 729.931 1204.74 729.42C1204.74 728.909 1204.57 728.483 1204.23 728.141C1203.89 727.799 1203.46 727.628 1202.96 727.628C1202.46 727.628 1202.04 727.799 1201.7 728.141C1201.36 728.483 1201.19 728.909 1201.19 729.42C1201.19 729.931 1201.36 730.358 1201.7 730.7C1202.04 731.042 1202.46 731.212 1202.96 731.212ZM1207.54 729.821C1207.62 730.264 1207.83 730.61 1208.15 730.861C1208.48 731.108 1208.88 731.232 1209.35 731.232C1209.68 731.232 1209.97 731.165 1210.21 731.032C1210.47 730.895 1210.66 730.718 1210.79 730.5L1211.53 730.919C1211.3 731.271 1211 731.548 1210.62 731.75C1210.25 731.951 1209.82 732.052 1209.33 732.052C1208.54 732.052 1207.89 731.803 1207.39 731.305C1206.9 730.807 1206.65 730.179 1206.65 729.42C1206.65 728.672 1206.89 728.047 1207.38 727.545C1207.87 727.041 1208.5 726.789 1209.27 726.789C1209.76 726.789 1210.19 726.912 1210.58 727.16C1210.96 727.404 1211.25 727.726 1211.46 728.126C1211.66 728.527 1211.76 728.961 1211.76 729.43C1211.76 729.56 1211.75 729.691 1211.73 729.821H1207.54ZM1209.27 727.609C1208.8 727.609 1208.41 727.741 1208.11 728.004C1207.8 728.268 1207.61 728.62 1207.54 729.059H1210.88C1210.81 728.587 1210.62 728.227 1210.32 727.98C1210.02 727.733 1209.67 727.609 1209.27 727.609ZM1216.89 724.918H1217.76V731.92H1216.89V731.061C1216.68 731.374 1216.42 731.618 1216.1 731.793C1215.78 731.966 1215.41 732.052 1215 732.052C1214.54 732.052 1214.12 731.937 1213.73 731.706C1213.34 731.474 1213.04 731.157 1212.81 730.753C1212.58 730.35 1212.47 729.905 1212.47 729.42C1212.47 728.935 1212.58 728.491 1212.81 728.087C1213.04 727.684 1213.34 727.366 1213.73 727.135C1214.12 726.904 1214.54 726.789 1215 726.789C1215.41 726.789 1215.78 726.876 1216.1 727.052C1216.42 727.225 1216.68 727.467 1216.89 727.78V724.918ZM1215.11 731.212C1215.61 731.212 1216.04 731.042 1216.38 730.7C1216.72 730.358 1216.89 729.931 1216.89 729.42C1216.89 728.909 1216.72 728.483 1216.38 728.141C1216.04 727.799 1215.61 727.628 1215.11 727.628C1214.61 727.628 1214.19 727.799 1213.85 728.141C1213.51 728.483 1213.34 728.909 1213.34 729.42C1213.34 729.931 1213.51 730.358 1213.85 730.7C1214.19 731.042 1214.61 731.212 1215.11 731.212ZM1224.3 727.76H1222.97V730.47C1222.97 730.714 1223.02 730.889 1223.12 730.993C1223.21 731.094 1223.36 731.147 1223.55 731.154C1223.75 731.157 1224 731.152 1224.3 731.139V731.92C1223.54 732.021 1222.98 731.959 1222.63 731.735C1222.28 731.51 1222.1 731.089 1222.1 730.47V727.76H1221.11V726.92H1222.1V725.783L1222.97 725.519V726.92H1224.3V727.76ZM1228.75 731.706C1228.34 731.937 1227.9 732.052 1227.42 732.052C1226.94 732.052 1226.5 731.937 1226.1 731.706C1225.69 731.474 1225.38 731.157 1225.14 730.753C1224.91 730.35 1224.79 729.905 1224.79 729.42C1224.79 728.935 1224.91 728.491 1225.14 728.087C1225.38 727.684 1225.69 727.366 1226.1 727.135C1226.5 726.904 1226.94 726.789 1227.42 726.789C1227.9 726.789 1228.34 726.904 1228.75 727.135C1229.15 727.366 1229.47 727.684 1229.71 728.087C1229.94 728.491 1230.06 728.935 1230.06 729.42C1230.06 729.905 1229.94 730.35 1229.71 730.753C1229.47 731.157 1229.15 731.474 1228.75 731.706ZM1227.42 731.203C1227.92 731.203 1228.34 731.032 1228.68 730.69C1229.02 730.348 1229.19 729.925 1229.19 729.42C1229.19 728.916 1229.02 728.493 1228.68 728.151C1228.34 727.809 1227.92 727.638 1227.42 727.638C1226.93 727.638 1226.51 727.809 1226.17 728.151C1225.83 728.493 1225.66 728.916 1225.66 729.42C1225.66 729.925 1225.83 730.348 1226.17 730.69C1226.51 731.032 1226.93 731.203 1227.42 731.203ZM1234.03 726.012C1233.86 726.012 1233.72 725.957 1233.61 725.846C1233.49 725.732 1233.44 725.594 1233.44 725.431C1233.44 725.268 1233.49 725.13 1233.61 725.016C1233.72 724.899 1233.86 724.84 1234.03 724.84C1234.19 724.84 1234.32 724.899 1234.44 725.016C1234.55 725.13 1234.61 725.268 1234.61 725.431C1234.61 725.591 1234.55 725.727 1234.44 725.841C1234.32 725.955 1234.19 726.012 1234.03 726.012ZM1233.59 731.92V726.92H1234.46V731.92H1233.59ZM1235.79 731.92V724.621H1236.66V731.92H1235.79ZM1237.98 731.92V724.621H1238.85V731.92H1237.98ZM1243.63 726.92H1244.5V731.92H1243.63V731.203C1243.28 731.769 1242.74 732.052 1242.01 732.052C1241.42 732.052 1240.95 731.868 1240.6 731.5C1240.25 731.129 1240.07 730.626 1240.07 729.992V726.92H1240.94V729.938C1240.94 730.345 1241.05 730.661 1241.27 730.885C1241.49 731.11 1241.8 731.222 1242.18 731.222C1242.61 731.222 1242.96 731.087 1243.23 730.817C1243.5 730.547 1243.63 730.132 1243.63 729.572V726.92ZM1246.57 728.268C1246.57 728.395 1246.61 728.506 1246.68 728.6C1246.77 728.691 1246.87 728.763 1247 728.815C1247.14 728.867 1247.29 728.921 1247.45 728.976C1247.62 729.028 1247.79 729.075 1247.96 729.118C1248.14 729.16 1248.31 729.22 1248.48 729.298C1248.65 729.376 1248.8 729.466 1248.93 729.567C1249.06 729.665 1249.17 729.798 1249.24 729.967C1249.32 730.137 1249.37 730.33 1249.37 730.548C1249.37 731.004 1249.19 731.369 1248.84 731.642C1248.49 731.916 1248.04 732.052 1247.5 732.052C1247.01 732.052 1246.6 731.946 1246.25 731.735C1245.9 731.52 1245.66 731.235 1245.51 730.88L1246.25 730.451C1246.34 730.692 1246.49 730.882 1246.7 731.022C1246.93 731.162 1247.19 731.232 1247.5 731.232C1247.78 731.232 1248.02 731.177 1248.21 731.066C1248.39 730.952 1248.49 730.779 1248.49 730.548C1248.49 730.421 1248.45 730.312 1248.36 730.221C1248.29 730.127 1248.18 730.054 1248.05 730.001C1247.92 729.946 1247.77 729.892 1247.6 729.84C1247.43 729.785 1247.26 729.736 1247.08 729.694C1246.91 729.652 1246.74 729.591 1246.57 729.513C1246.41 729.435 1246.26 729.347 1246.12 729.25C1245.99 729.152 1245.89 729.02 1245.81 728.854C1245.73 728.688 1245.69 728.498 1245.69 728.283C1245.69 727.847 1245.86 727.488 1246.19 727.208C1246.53 726.929 1246.95 726.789 1247.46 726.789C1247.86 726.789 1248.22 726.881 1248.54 727.067C1248.86 727.249 1249.1 727.503 1249.26 727.829L1248.53 728.239C1248.43 728.024 1248.29 727.864 1248.1 727.76C1247.9 727.653 1247.69 727.599 1247.46 727.599C1247.21 727.599 1247 727.658 1246.83 727.775C1246.65 727.892 1246.57 728.056 1246.57 728.268ZM1252.91 727.76H1251.58V730.47C1251.58 730.714 1251.63 730.889 1251.73 730.993C1251.83 731.094 1251.97 731.147 1252.17 731.154C1252.37 731.157 1252.61 731.152 1252.91 731.139V731.92C1252.15 732.021 1251.6 731.959 1251.24 731.735C1250.89 731.51 1250.71 731.089 1250.71 730.47V727.76H1249.72V726.92H1250.71V725.783L1251.58 725.519V726.92H1252.91V727.76ZM1254.84 727.76C1255.13 727.142 1255.65 726.833 1256.4 726.833V727.741C1256.2 727.734 1256.01 727.755 1255.83 727.804C1255.66 727.853 1255.49 727.934 1255.34 728.048C1255.19 728.159 1255.07 728.32 1254.98 728.532C1254.88 728.74 1254.84 728.986 1254.84 729.269V731.92H1253.97V726.92H1254.84V727.76ZM1261.12 726.92H1261.99V731.92H1261.12V731.061C1260.91 731.374 1260.65 731.618 1260.33 731.793C1260.01 731.966 1259.64 732.052 1259.23 732.052C1258.77 732.052 1258.35 731.937 1257.96 731.706C1257.57 731.474 1257.26 731.157 1257.04 730.753C1256.81 730.35 1256.7 729.905 1256.7 729.42C1256.7 728.935 1256.81 728.491 1257.04 728.087C1257.26 727.684 1257.57 727.366 1257.96 727.135C1258.35 726.904 1258.77 726.789 1259.23 726.789C1259.64 726.789 1260.01 726.876 1260.33 727.052C1260.65 727.225 1260.91 727.467 1261.12 727.78V726.92ZM1259.34 731.212C1259.84 731.212 1260.26 731.042 1260.61 730.7C1260.95 730.358 1261.12 729.931 1261.12 729.42C1261.12 728.909 1260.95 728.483 1260.61 728.141C1260.26 727.799 1259.84 727.628 1259.34 727.628C1258.83 727.628 1258.41 727.799 1258.08 728.141C1257.74 728.483 1257.57 728.909 1257.57 729.42C1257.57 729.931 1257.74 730.358 1258.08 730.7C1258.41 731.042 1258.83 731.212 1259.34 731.212ZM1266.03 727.76H1264.7V730.47C1264.7 730.714 1264.75 730.889 1264.84 730.993C1264.94 731.094 1265.09 731.147 1265.28 731.154C1265.48 731.157 1265.73 731.152 1266.03 731.139V731.92C1265.27 732.021 1264.71 731.959 1264.36 731.735C1264 731.51 1263.83 731.089 1263.83 730.47V727.76H1262.84V726.92H1263.83V725.783L1264.7 725.519V726.92H1266.03V727.76ZM1267.41 729.821C1267.5 730.264 1267.7 730.61 1268.03 730.861C1268.35 731.108 1268.75 731.232 1269.22 731.232C1269.55 731.232 1269.84 731.165 1270.09 731.032C1270.34 730.895 1270.53 730.718 1270.66 730.5L1271.4 730.919C1271.17 731.271 1270.87 731.548 1270.49 731.75C1270.12 731.951 1269.69 732.052 1269.2 732.052C1268.41 732.052 1267.76 731.803 1267.27 731.305C1266.77 730.807 1266.52 730.179 1266.52 729.42C1266.52 728.672 1266.77 728.047 1267.26 727.545C1267.74 727.041 1268.37 726.789 1269.14 726.789C1269.63 726.789 1270.07 726.912 1270.45 727.16C1270.83 727.404 1271.13 727.726 1271.33 728.126C1271.53 728.527 1271.63 728.961 1271.63 729.43C1271.63 729.56 1271.62 729.691 1271.6 729.821H1267.41ZM1269.14 727.609C1268.68 727.609 1268.29 727.741 1267.98 728.004C1267.67 728.268 1267.48 728.62 1267.41 729.059H1270.75C1270.68 728.587 1270.49 728.227 1270.19 727.98C1269.89 727.733 1269.54 727.609 1269.14 727.609ZM1277.89 726.789C1278.35 726.789 1278.77 726.904 1279.16 727.135C1279.55 727.366 1279.86 727.684 1280.08 728.087C1280.31 728.491 1280.42 728.935 1280.42 729.42C1280.42 729.905 1280.31 730.35 1280.08 730.753C1279.86 731.157 1279.55 731.474 1279.16 731.706C1278.77 731.937 1278.35 732.052 1277.89 732.052C1277.48 732.052 1277.11 731.966 1276.79 731.793C1276.47 731.618 1276.21 731.374 1276 731.061V733.922H1275.13V726.92H1276V727.78C1276.21 727.467 1276.47 727.225 1276.79 727.052C1277.11 726.876 1277.48 726.789 1277.89 726.789ZM1277.78 731.212C1278.28 731.212 1278.7 731.042 1279.04 730.7C1279.38 730.358 1279.55 729.931 1279.55 729.42C1279.55 728.909 1279.38 728.483 1279.04 728.141C1278.7 727.799 1278.28 727.628 1277.78 727.628C1277.28 727.628 1276.86 727.799 1276.51 728.141C1276.17 728.483 1276 728.909 1276 729.42C1276 729.931 1276.17 730.358 1276.51 730.7C1276.86 731.042 1277.28 731.212 1277.78 731.212ZM1285.13 731.706C1284.73 731.937 1284.29 732.052 1283.81 732.052C1283.33 732.052 1282.89 731.937 1282.49 731.706C1282.08 731.474 1281.76 731.157 1281.53 730.753C1281.3 730.35 1281.18 729.905 1281.18 729.42C1281.18 728.935 1281.3 728.491 1281.53 728.087C1281.76 727.684 1282.08 727.366 1282.49 727.135C1282.89 726.904 1283.33 726.789 1283.81 726.789C1284.29 726.789 1284.73 726.904 1285.13 727.135C1285.54 727.366 1285.86 727.684 1286.09 728.087C1286.33 728.491 1286.45 728.935 1286.45 729.42C1286.45 729.905 1286.33 730.35 1286.09 730.753C1285.86 731.157 1285.54 731.474 1285.13 731.706ZM1283.81 731.203C1284.31 731.203 1284.73 731.032 1285.07 730.69C1285.41 730.348 1285.58 729.925 1285.58 729.42C1285.58 728.916 1285.41 728.493 1285.07 728.151C1284.73 727.809 1284.31 727.638 1283.81 727.638C1283.31 727.638 1282.9 727.809 1282.56 728.151C1282.22 728.493 1282.05 728.916 1282.05 729.42C1282.05 729.925 1282.22 730.348 1282.56 730.69C1282.9 731.032 1283.31 731.203 1283.81 731.203ZM1290.08 727.76H1288.75V730.47C1288.75 730.714 1288.8 730.889 1288.9 730.993C1288.99 731.094 1289.14 731.147 1289.34 731.154C1289.53 731.157 1289.78 731.152 1290.08 731.139V731.92C1289.32 732.021 1288.76 731.959 1288.41 731.735C1288.06 731.51 1287.88 731.089 1287.88 730.47V727.76H1286.89V726.92H1287.88V725.783L1288.75 725.519V726.92H1290.08V727.76ZM1291.46 729.821C1291.55 730.264 1291.75 730.61 1292.08 730.861C1292.41 731.108 1292.8 731.232 1293.28 731.232C1293.61 731.232 1293.89 731.165 1294.14 731.032C1294.39 730.895 1294.58 730.718 1294.72 730.5L1295.45 730.919C1295.23 731.271 1294.92 731.548 1294.55 731.75C1294.17 731.951 1293.74 732.052 1293.26 732.052C1292.46 732.052 1291.82 731.803 1291.32 731.305C1290.82 730.807 1290.58 730.179 1290.58 729.42C1290.58 728.672 1290.82 728.047 1291.31 727.545C1291.8 727.041 1292.43 726.789 1293.19 726.789C1293.68 726.789 1294.12 726.912 1294.5 727.16C1294.89 727.404 1295.18 727.726 1295.38 728.126C1295.58 728.527 1295.68 728.961 1295.68 729.43C1295.68 729.56 1295.67 729.691 1295.65 729.821H1291.46ZM1293.19 727.609C1292.73 727.609 1292.34 727.741 1292.03 728.004C1291.73 728.268 1291.54 728.62 1291.46 729.059H1294.8C1294.73 728.587 1294.55 728.227 1294.24 727.98C1293.94 727.733 1293.59 727.609 1293.19 727.609ZM1299.17 726.789C1299.76 726.789 1300.23 726.974 1300.59 727.345C1300.94 727.713 1301.11 728.214 1301.11 728.849V731.92H1300.24V728.903C1300.24 728.496 1300.13 728.18 1299.91 727.956C1299.69 727.731 1299.39 727.619 1299 727.619C1298.57 727.619 1298.22 727.754 1297.95 728.024C1297.69 728.294 1297.55 728.709 1297.55 729.269V731.92H1296.68V726.92H1297.55V727.638C1297.91 727.072 1298.45 726.789 1299.17 726.789ZM1305.05 727.76H1303.72V730.47C1303.72 730.714 1303.77 730.889 1303.87 730.993C1303.96 731.094 1304.11 731.147 1304.31 731.154C1304.51 731.157 1304.75 731.152 1305.05 731.139V731.92C1304.29 732.021 1303.73 731.959 1303.38 731.735C1303.03 731.51 1302.85 731.089 1302.85 730.47V727.76H1301.86V726.92H1302.85V725.783L1303.72 725.519V726.92H1305.05V727.76ZM1306.52 726.012C1306.35 726.012 1306.21 725.957 1306.1 725.846C1305.98 725.732 1305.93 725.594 1305.93 725.431C1305.93 725.268 1305.98 725.13 1306.1 725.016C1306.21 724.899 1306.35 724.84 1306.52 724.84C1306.68 724.84 1306.81 724.899 1306.93 725.016C1307.04 725.13 1307.1 725.268 1307.1 725.431C1307.1 725.591 1307.04 725.727 1306.93 725.841C1306.81 725.955 1306.68 726.012 1306.52 726.012ZM1306.08 731.92V726.92H1306.95V731.92H1306.08ZM1312.42 726.92H1313.29V731.92H1312.42V731.061C1312.21 731.374 1311.95 731.618 1311.63 731.793C1311.31 731.966 1310.94 732.052 1310.53 732.052C1310.07 732.052 1309.65 731.937 1309.26 731.706C1308.87 731.474 1308.56 731.157 1308.33 730.753C1308.11 730.35 1308 729.905 1308 729.42C1308 728.935 1308.11 728.491 1308.33 728.087C1308.56 727.684 1308.87 727.366 1309.26 727.135C1309.65 726.904 1310.07 726.789 1310.53 726.789C1310.94 726.789 1311.31 726.876 1311.63 727.052C1311.95 727.225 1312.21 727.467 1312.42 727.78V726.92ZM1310.63 731.212C1311.14 731.212 1311.56 731.042 1311.9 730.7C1312.25 730.358 1312.42 729.931 1312.42 729.42C1312.42 728.909 1312.25 728.483 1311.9 728.141C1311.56 727.799 1311.14 727.628 1310.63 727.628C1310.13 727.628 1309.71 727.799 1309.38 728.141C1309.04 728.483 1308.87 728.909 1308.87 729.42C1308.87 729.931 1309.04 730.358 1309.38 730.7C1309.71 731.042 1310.13 731.212 1310.63 731.212ZM1314.6 731.92V724.621H1315.47V731.92H1314.6ZM1320.17 727.76C1320.46 727.142 1320.98 726.833 1321.73 726.833V727.741C1321.53 727.734 1321.35 727.755 1321.17 727.804C1320.99 727.853 1320.83 727.934 1320.67 728.048C1320.52 728.159 1320.4 728.32 1320.31 728.532C1320.22 728.74 1320.17 728.986 1320.17 729.269V731.92H1319.3V726.92H1320.17V727.76ZM1322.92 729.821C1323 730.264 1323.21 730.61 1323.54 730.861C1323.86 731.108 1324.26 731.232 1324.73 731.232C1325.06 731.232 1325.35 731.165 1325.6 731.032C1325.85 730.895 1326.04 730.718 1326.17 730.5L1326.91 730.919C1326.68 731.271 1326.38 731.548 1326 731.75C1325.63 731.951 1325.2 732.052 1324.71 732.052C1323.92 732.052 1323.27 731.803 1322.77 731.305C1322.28 730.807 1322.03 730.179 1322.03 729.42C1322.03 728.672 1322.28 728.047 1322.76 727.545C1323.25 727.041 1323.88 726.789 1324.65 726.789C1325.14 726.789 1325.57 726.912 1325.96 727.16C1326.34 727.404 1326.63 727.726 1326.84 728.126C1327.04 728.527 1327.14 728.961 1327.14 729.43C1327.14 729.56 1327.13 729.691 1327.11 729.821H1322.92ZM1324.65 727.609C1324.18 727.609 1323.8 727.741 1323.49 728.004C1323.18 728.268 1322.99 728.62 1322.92 729.059H1326.26C1326.19 728.587 1326 728.227 1325.7 727.98C1325.4 727.733 1325.05 727.609 1324.65 727.609ZM1333.82 726.92H1334.74L1333.18 731.92H1332.29L1331.12 728.219L1329.96 731.92H1329.07L1327.51 726.92H1328.43L1329.53 730.719L1330.7 726.92H1331.54L1332.72 730.729L1333.82 726.92ZM1339.57 726.92H1340.43V731.92H1339.57V731.061C1339.36 731.374 1339.1 731.618 1338.77 731.793C1338.46 731.966 1338.09 732.052 1337.68 732.052C1337.22 732.052 1336.79 731.937 1336.41 731.706C1336.02 731.474 1335.71 731.157 1335.48 730.753C1335.26 730.35 1335.15 729.905 1335.15 729.42C1335.15 728.935 1335.26 728.491 1335.48 728.087C1335.71 727.684 1336.02 727.366 1336.41 727.135C1336.79 726.904 1337.22 726.789 1337.68 726.789C1338.09 726.789 1338.46 726.876 1338.77 727.052C1339.1 727.225 1339.36 727.467 1339.57 727.78V726.92ZM1337.78 731.212C1338.29 731.212 1338.71 731.042 1339.05 730.7C1339.39 730.358 1339.57 729.931 1339.57 729.42C1339.57 728.909 1339.39 728.483 1339.05 728.141C1338.71 727.799 1338.29 727.628 1337.78 727.628C1337.28 727.628 1336.86 727.799 1336.52 728.141C1336.18 728.483 1336.02 728.909 1336.02 729.42C1336.02 729.931 1336.18 730.358 1336.52 730.7C1336.86 731.042 1337.28 731.212 1337.78 731.212ZM1342.62 727.76C1342.91 727.142 1343.43 726.833 1344.18 726.833V727.741C1343.99 727.734 1343.8 727.755 1343.62 727.804C1343.44 727.853 1343.28 727.934 1343.12 728.048C1342.97 728.159 1342.85 728.32 1342.76 728.532C1342.67 728.74 1342.62 728.986 1342.62 729.269V731.92H1341.75V726.92H1342.62V727.76ZM1348.9 724.918H1349.77V731.92H1348.9V731.061C1348.7 731.374 1348.43 731.618 1348.11 731.793C1347.79 731.966 1347.43 732.052 1347.01 732.052C1346.55 732.052 1346.13 731.937 1345.74 731.706C1345.35 731.474 1345.05 731.157 1344.82 730.753C1344.59 730.35 1344.48 729.905 1344.48 729.42C1344.48 728.935 1344.59 728.491 1344.82 728.087C1345.05 727.684 1345.35 727.366 1345.74 727.135C1346.13 726.904 1346.55 726.789 1347.01 726.789C1347.43 726.789 1347.79 726.876 1348.11 727.052C1348.43 727.225 1348.7 727.467 1348.9 727.78V724.918ZM1347.12 731.212C1347.62 731.212 1348.05 731.042 1348.39 730.7C1348.73 730.358 1348.9 729.931 1348.9 729.42C1348.9 728.909 1348.73 728.483 1348.39 728.141C1348.05 727.799 1347.62 727.628 1347.12 727.628C1346.62 727.628 1346.2 727.799 1345.86 728.141C1345.52 728.483 1345.35 728.909 1345.35 729.42C1345.35 729.931 1345.52 730.358 1345.86 730.7C1346.2 731.042 1346.62 731.212 1347.12 731.212ZM1351.83 728.268C1351.83 728.395 1351.87 728.506 1351.95 728.6C1352.03 728.691 1352.14 728.763 1352.27 728.815C1352.4 728.867 1352.55 728.921 1352.71 728.976C1352.88 729.028 1353.06 729.075 1353.23 729.118C1353.4 729.16 1353.57 729.22 1353.74 729.298C1353.91 729.376 1354.06 729.466 1354.19 729.567C1354.32 729.665 1354.43 729.798 1354.51 729.967C1354.59 730.137 1354.63 730.33 1354.63 730.548C1354.63 731.004 1354.45 731.369 1354.1 731.642C1353.75 731.916 1353.3 732.052 1352.76 732.052C1352.27 732.052 1351.86 731.946 1351.51 731.735C1351.17 731.52 1350.92 731.235 1350.77 730.88L1351.52 730.451C1351.6 730.692 1351.75 730.882 1351.97 731.022C1352.19 731.162 1352.45 731.232 1352.76 731.232C1353.05 731.232 1353.29 731.177 1353.47 731.066C1353.66 730.952 1353.75 730.779 1353.75 730.548C1353.75 730.421 1353.71 730.312 1353.63 730.221C1353.55 730.127 1353.44 730.054 1353.31 730.001C1353.18 729.946 1353.03 729.892 1352.86 729.84C1352.7 729.785 1352.52 729.736 1352.35 729.694C1352.18 729.652 1352.01 729.591 1351.84 729.513C1351.67 729.435 1351.52 729.347 1351.39 729.25C1351.26 729.152 1351.15 729.02 1351.07 728.854C1350.99 728.688 1350.95 728.498 1350.95 728.283C1350.95 727.847 1351.12 727.488 1351.46 727.208C1351.79 726.929 1352.21 726.789 1352.72 726.789C1353.13 726.789 1353.49 726.881 1353.8 727.067C1354.12 727.249 1354.36 727.503 1354.52 727.829L1353.79 728.239C1353.7 728.024 1353.55 727.864 1353.36 727.76C1353.17 727.653 1352.95 727.599 1352.72 727.599C1352.48 727.599 1352.27 727.658 1352.09 727.775C1351.92 727.892 1351.83 728.056 1351.83 728.268Z" fill="#3F6870"/>
</g>
<defs>
<filter id="filter0_f_3333_222898" x="251" y="-366.08" width="1535" height="1535" filterUnits="userSpaceOnUse" color-interpolation-filters="sRGB">
<feFlood flood-opacity="0" result="BackgroundImageFix"/>
<feBlend mode="normal" in="SourceGraphic" in2="BackgroundImageFix" result="shape"/>
<feGaussianBlur stdDeviation="250" result="effect1_foregroundBlur_3333_222898"/>
</filter>
<clipPath id="clip0_3333_222898">
<rect width="1512" height="752" fill="white" transform="translate(0 0.92041)"/>
</clipPath>
</defs>
</svg>
